<svg width="90" height="90" viewBox="0 0 90 90" fill="none" xmlns="http://www.w3.org/2000/svg">
<ellipse cx="42" cy="46.5" rx="26" ry="30.5" fill="#FFF9D7"/>
<path fill-rule="evenodd" clip-rule="evenodd" d="M58.5 32C60.5597 32 62.519 31.5706 64.2935 30.7963C66.6466 35.3835 68 40.7563 68 46.5C68 49.0955 67.7236 51.6154 67.2035 54.0212C66.9708 54.0071 66.7362 54 66.5 54C60.1487 54 55 59.1487 55 65.5C55 67.7466 55.6442 69.8428 56.758 71.6138C52.5655 75.0106 47.4808 77 42 77C41.9092 77 41.8185 76.9995 41.7279 76.9984C41.906 76.194 42 75.358 42 74.5C42 68.1487 36.8513 63 30.5 63C27.2963 63 24.3986 64.31 22.3133 66.4236C18.3793 61.079 16 54.1154 16 46.5C16 46.3075 16.0015 46.1155 16.0045 45.9238C16.4962 45.9742 16.9951 46 17.5 46C25.5081 46 32 39.5081 32 31.5C32 27.4201 30.315 23.7338 27.6029 21.0989C31.7249 17.8775 36.6755 16 42 16C42.6958 16 43.3852 16.0321 44.0672 16.095C44.0227 16.5573 44 17.026 44 17.5C44 25.5081 50.4919 32 58.5 32Z" fill="#259805"/>
<circle cx="44.5" cy="46.5" r="11.5" fill="#FFF9D7"/>
</svg>
