<svg width="85" height="85" viewBox="0 0 85 85" fill="none" xmlns="http://www.w3.org/2000/svg">
<g clip-path="url(#clip0_5269_62)">
<path d="M39.192 38.3535C42.9085 57.33 44.134 62.6405 58.4314 70.8104" stroke="#EFC286" stroke-width="20" stroke-linecap="round"/>
<path d="M33.2334 11.1824C38.527 6.50819 46.473 6.50818 51.7666 11.1824L68.8869 26.2998C78.5536 34.8356 72.5163 50.7941 59.6203 50.7941H25.3797C12.4837 50.7941 6.44638 34.8356 16.1131 26.2998L33.2334 11.1824Z" fill="#9B00DE"/>
<path fill-rule="evenodd" clip-rule="evenodd" d="M50.5673 10.2337C50.9798 10.5251 51.3803 10.8413 51.7666 11.1824L64.549 22.4693C62.9006 24.6329 60.4062 26.012 57.6144 26.012C52.6511 26.012 48.6275 21.6531 48.6275 16.2761C48.6275 13.9933 49.3528 11.8939 50.5673 10.2337Z" fill="white"/>
<path fill-rule="evenodd" clip-rule="evenodd" d="M14.8298 27.5765C15.2221 27.1356 15.6496 26.7091 16.1132 26.2998L28.5658 15.3041C30.3516 17.0834 31.4707 19.636 31.4707 22.4717C31.4707 27.8486 27.4471 32.2075 22.4837 32.2075C19.2484 32.2075 16.4124 30.3554 14.8298 27.5765Z" fill="white"/>
<path fill-rule="evenodd" clip-rule="evenodd" d="M40.8668 50.7941H25.3797C25.0857 50.7941 24.7952 50.7858 24.5084 50.7695C23.2367 48.9247 22.4837 46.6356 22.4837 44.156C22.4837 38.0459 27.056 33.0926 32.6961 33.0926C38.3363 33.0926 42.9085 38.0459 42.9085 44.156C42.9085 46.6467 42.1488 48.9451 40.8668 50.7941Z" fill="white"/>
<path fill-rule="evenodd" clip-rule="evenodd" d="M73.5784 38.0774C72.9138 44.7293 67.5703 50.7941 59.6203 50.7941H57.0709C55.3802 48.82 54.3464 46.1763 54.3464 43.271C54.3464 37.1608 58.9187 32.2075 64.5589 32.2075C68.4663 32.2075 71.8613 34.5849 73.5784 38.0774Z" fill="white"/>
</g>
<defs>
<clipPath id="clip0_5269_62">
<rect width="85" height="85" fill="white"/>
</clipPath>
</defs>
</svg>
