<svg width="825" height="872" viewBox="0 0 825 872" fill="none" xmlns="http://www.w3.org/2000/svg">
<path d="M376.924 474.805C396.839 452.119 432.161 452.119 452.076 474.805L631.338 679.015C659.703 711.327 636.758 762 593.762 762H235.238C192.242 762 169.297 711.327 197.662 679.014L376.924 474.805Z" fill="#224DCB"/>
<path d="M602.383 334C615.974 334 629.008 339.399 638.618 349.009C648.229 358.619 653.628 371.654 653.628 385.245C653.628 398.836 648.229 411.87 638.618 421.48C629.008 431.09 615.974 436.489 602.383 436.489L602.383 385.245L602.383 334Z" fill="#F3A7BF"/>
<path d="M602.383 349.879C611.763 349.879 620.758 353.605 627.391 360.237C634.023 366.87 637.749 375.865 637.749 385.245C637.749 394.624 634.023 403.62 627.391 410.252C620.758 416.885 611.763 420.611 602.383 420.611L602.383 385.245L602.383 349.879Z" fill="#CB7878"/>
<path d="M226.245 436C212.654 436 199.62 430.601 190.009 420.991C180.399 411.381 175 398.346 175 384.755C175 371.164 180.399 358.13 190.009 348.52C199.62 338.91 212.654 333.511 226.245 333.511L226.245 384.755L226.245 436Z" fill="#F3A7BF"/>
<path d="M226.245 420.121C216.865 420.121 207.87 416.395 201.237 409.763C194.605 403.13 190.879 394.135 190.879 384.755C190.879 375.376 194.605 366.38 201.237 359.748C207.87 353.115 216.865 349.389 226.245 349.389L226.245 384.755L226.245 420.121Z" fill="#CB7878"/>
<circle cx="414.5" cy="355.5" r="204.5" fill="#F3A7BF"/>
<circle cx="331.521" cy="385.521" r="29.5208" fill="#130B76"/>
<circle cx="497.19" cy="385.521" r="29.5208" fill="#130B76"/>
<path d="M348.517 463.619C369.519 486.678 425.359 518.96 480.699 463.619" stroke="#130B76" stroke-width="25" stroke-linecap="round"/>
<path d="M414.506 191C493.222 191 558.433 248.816 569.992 324.3C553.093 334.415 533.325 340.23 512.198 340.23C464.192 340.23 423.197 310.212 406.959 267.922C390.924 310.616 349.726 341 301.429 341C286.036 341 271.366 337.912 258 332.325C266.009 252.953 333.023 191 414.506 191Z" fill="#C57F95" fill-opacity="0.6"/>
<path d="M414.458 151C516.788 151 601.563 226.161 616.591 324.289C594.622 337.439 568.924 345 541.458 345C479.05 345 425.757 305.976 404.647 250.999C383.803 306.502 330.244 346 267.458 346C247.448 346 228.376 341.986 211 334.723C221.412 231.539 308.53 151 414.458 151Z" fill="#080049"/>
<path d="M502 193C512.07 196.437 534.262 211.569 550 236" stroke="#130B76" stroke-width="15" stroke-linecap="round"/>
<circle cx="567" cy="256" r="7" fill="#130B76"/>
<circle cx="414" cy="334" r="287" fill="white" fill-opacity="0.15"/>
<rect x="224" y="539" width="378" height="89" rx="44.5" fill="#6E6E6E"/>
<circle cx="382" cy="584" r="12" fill="#C02D2D"/>
<circle cx="414" cy="584" r="12" fill="#FCB40C"/>
<circle cx="446" cy="584" r="12" fill="#559303"/>
</svg>
