<svg width="90" height="90" viewBox="0 0 90 90" fill="none" xmlns="http://www.w3.org/2000/svg">
<rect x="34" y="12" width="24" height="35" fill="#C6C4C4"/>
<path d="M75 55.7463C75 71.9027 62.0163 85 46 85C29.9837 85 17 71.9027 17 55.7463C17 39.5899 29.9837 26.4925 46 26.4925C62.0163 26.4925 75 39.5899 75 55.7463Z" fill="#C6C4C4"/>
<path opacity="0.7" d="M51.8 36.3043C51.8 34.3834 53.3816 32.8261 55.2187 33.3876C59.3134 34.6392 63.8906 37.9056 66.347 42.4063C66.9877 43.5804 66.6138 45.0076 65.6194 45.9021V45.9021C65.0203 46.441 64.2431 46.7391 63.4373 46.7391H63.2595C61.2016 46.7391 59.1047 45.0767 57.6902 43.5821C56.8772 42.723 55.8891 41.8827 54.9268 41.2117C53.351 40.113 51.8 38.2253 51.8 36.3043V36.3043Z" fill="white"/>
<path d="M72.5 56C72.4999 53.7278 72.2568 51.9081 71.8031 50.4406C68.7707 40.631 52.6532 54.8635 42.5916 52.8167C40.9613 52.485 39.6884 51.7732 38.1337 51.1809C35.2463 50.0809 32.353 48.6641 29.6462 47.5735C17.9339 42.8545 16.1505 61.9188 24.2767 71.5837C30.866 79.4205 39.4046 82 46.5 82C57.3214 82 72.5004 71.788 72.5 56Z" fill="#DE0000"/>
</svg>
