<svg width="52" height="61" viewBox="0 0 52 61" fill="none" xmlns="http://www.w3.org/2000/svg">
<ellipse cx="26" cy="30.5" rx="26" ry="30.5" fill="#FFF9D7"/>
<path fill-rule="evenodd" clip-rule="evenodd" d="M42.5 16C44.5597 16 46.519 15.5706 48.2935 14.7963C50.6466 19.3835 52 24.7563 52 30.5C52 33.0955 51.7236 35.6154 51.2035 38.0212C50.9708 38.0071 50.7362 38 50.5 38C44.1487 38 39 43.1487 39 49.5C39 51.7466 39.6442 53.8428 40.758 55.6138C36.5655 59.0106 31.4808 61 26 61C25.9092 61 25.8185 60.9995 25.7279 60.9984C25.9061 60.194 26 59.358 26 58.5C26 52.1487 20.8513 47 14.5 47C11.2963 47 8.39862 48.31 6.31334 50.4236C2.37926 45.079 0 38.1154 0 30.5C0 30.3075 0.00152588 30.1155 0.00454712 29.9238C0.49617 29.9742 0.995071 30 1.5 30C9.50813 30 16 23.5081 16 15.5C16 11.4201 14.315 7.73376 11.6029 5.09895C15.7249 1.87752 20.6755 0 26 0C26.6958 0 27.3852 0.032074 28.0672 0.0950012C28.0228 0.557343 28 1.02602 28 1.5C28 9.50813 34.4919 16 42.5 16Z" fill="#259805"/>
<circle cx="28.5" cy="30.5" r="11.5" fill="#FFF9D7"/>
</svg>
