<svg width="129" height="120" viewBox="0 0 129 120" fill="none" xmlns="http://www.w3.org/2000/svg">
<path d="M59.192 52.3535C62.9085 71.33 64.134 76.6405 78.4314 84.8104" stroke="#FFCF91" stroke-width="20" stroke-linecap="round"/>
<path d="M53.2334 25.1824C58.527 20.5082 66.473 20.5082 71.7666 25.1824L88.8869 40.2998C98.5536 48.8356 92.5163 64.7941 79.6203 64.7941H45.3797C32.4837 64.7941 26.4464 48.8356 36.1131 40.2998L53.2334 25.1824Z" fill="#DE0000"/>
<path fill-rule="evenodd" clip-rule="evenodd" d="M70.5673 24.2337C70.9798 24.5251 71.3803 24.8413 71.7666 25.1824L84.549 36.4693C82.9006 38.6329 80.4062 40.012 77.6144 40.012C72.6511 40.012 68.6275 35.6531 68.6275 30.2761C68.6275 27.9933 69.3528 25.8939 70.5673 24.2337Z" fill="white"/>
<path fill-rule="evenodd" clip-rule="evenodd" d="M34.8298 41.5765C35.2221 41.1356 35.6496 40.7092 36.1132 40.2998L48.5658 29.3041C50.3516 31.0834 51.4707 33.636 51.4707 36.4717C51.4707 41.8486 47.4471 46.2075 42.4837 46.2075C39.2484 46.2075 36.4124 44.3554 34.8298 41.5765Z" fill="white"/>
<path fill-rule="evenodd" clip-rule="evenodd" d="M60.8668 64.7941H45.3797C45.0857 64.7941 44.7952 64.7858 44.5084 64.7695C43.2367 62.9247 42.4837 60.6356 42.4837 58.156C42.4837 52.0459 47.056 47.0926 52.6961 47.0926C58.3363 47.0926 62.9085 52.0459 62.9085 58.156C62.9085 60.6467 62.1488 62.9451 60.8668 64.7941Z" fill="white"/>
<path fill-rule="evenodd" clip-rule="evenodd" d="M93.5784 52.0774C92.9138 58.7293 87.5703 64.7941 79.6203 64.7941H77.0709C75.3802 62.82 74.3464 60.1763 74.3464 57.271C74.3464 51.1608 78.9187 46.2075 84.5589 46.2075C88.4663 46.2075 91.8613 48.5849 93.5784 52.0774Z" fill="white"/>
</svg>
