<svg width="2487" height="1487" viewBox="0 0 2487 1487" fill="none" xmlns="http://www.w3.org/2000/svg">
<path d="M1168 430C2125.62 577.954 3466.28 895.289 1168 981" stroke="#FFF3C6" stroke-width="100" stroke-linecap="round"/>
<mask id="mask0_1046_24" style="mask-type:alpha" maskUnits="userSpaceOnUse" x="1117" y="379" width="1370" height="653">
<path d="M1168 430C2125.62 577.954 3466.28 895.289 1168 981" stroke="#FFF3C6" stroke-width="100" stroke-linecap="round"/>
</mask>
<g mask="url(#mask0_1046_24)">
<rect x="1871" y="532.932" width="674" height="347.21" transform="rotate(-11.2015 1871 532.932)" fill="#FFC971"/>
</g>
<mask id="mask1_1046_24" style="mask-type:alpha" maskUnits="userSpaceOnUse" x="0" y="379" width="1219" height="653">
<path d="M1168 430C324.331 577.954 -856.806 895.289 1168 981" stroke="#FFF3C6" stroke-width="100" stroke-linecap="round"/>
</mask>
<g mask="url(#mask1_1046_24)">
<path d="M1168 430C324.331 577.954 -856.806 895.289 1168 981" stroke="#FFF3C6" stroke-width="100" stroke-linecap="round"/>
<path d="M1168 430C324.331 577.954 -856.806 895.289 1168 981" stroke="#FFF3C6" stroke-width="100" stroke-linecap="round"/>
<rect x="-23.4458" y="315" width="788" height="440" transform="rotate(9.22722 -23.4458 315)" fill="#FFC971"/>
</g>
<circle cx="1243.5" cy="722.5" r="722.5" fill="#EEE632"/>
<circle cx="1308.5" cy="705.5" r="43.5" fill="#FFDA57"/>
<circle cx="1431.5" cy="811.5" r="62.5" fill="#FFD12F"/>
<mask id="mask2_1046_24" style="mask-type:alpha" maskUnits="userSpaceOnUse" x="521" y="0" width="1445" height="1445">
<circle cx="1243.5" cy="722.5" r="722.5" fill="#EEE632"/>
<circle cx="1308.5" cy="705.5" r="43.5" fill="#FFDA57"/>
<circle cx="1431.5" cy="811.5" r="62.5" fill="#FFD12F"/>
</mask>
<g mask="url(#mask2_1046_24)">
<rect x="479" y="1125" width="1544" height="377" fill="#F9A723"/>
</g>
<mask id="mask3_1046_24" style="mask-type:alpha" maskUnits="userSpaceOnUse" x="521" y="0" width="1445" height="1445">
<circle cx="1243.5" cy="722.5" r="722.5" fill="#EEE632"/>
<circle cx="1308.5" cy="705.5" r="43.5" fill="#FFDA57"/>
<circle cx="1431.5" cy="811.5" r="62.5" fill="#FFD12F"/>
<mask id="mask4_1046_24" style="mask-type:alpha" maskUnits="userSpaceOnUse" x="521" y="0" width="1445" height="1445">
<circle cx="1243.5" cy="722.5" r="722.5" fill="#EEE632"/>
<circle cx="1308.5" cy="705.5" r="43.5" fill="#F49300"/>
<circle cx="1431.5" cy="811.5" r="62.5" fill="#FFC700"/>
</mask>
<g mask="url(#mask4_1046_24)">
<rect x="479" y="1125" width="1544" height="377" fill="#F9A723"/>
</g>
</mask>
<g mask="url(#mask3_1046_24)">
<path d="M885 428H1732.5" stroke="#FDFFE8" stroke-width="200" stroke-linecap="round"/>
<path d="M1168 56H1535.5" stroke="#FFEEB1" stroke-width="200" stroke-linecap="round"/>
<path d="M137 342H921" stroke="#FFEF9D" stroke-width="160" stroke-linecap="round"/>
<rect x="-9" y="595" width="1221" height="558" rx="279" fill="#FF9A62"/>
<path d="M912 1070L1855 1064.92" stroke="#FFEEB1" stroke-width="200" stroke-linecap="round"/>
<path d="M542 1226H1085.5" stroke="#FFEF9D" stroke-width="170" stroke-linecap="round"/>
</g>
<mask id="mask5_1046_24" style="mask-type:alpha" maskUnits="userSpaceOnUse" x="521" y="0" width="1445" height="1445">
<circle cx="1243.5" cy="722.5" r="722.5" fill="#EEE632"/>
<circle cx="1308.5" cy="705.5" r="43.5" fill="#FFDA57"/>
<circle cx="1431.5" cy="811.5" r="62.5" fill="#FFD12F"/>
<mask id="mask6_1046_24" style="mask-type:alpha" maskUnits="userSpaceOnUse" x="521" y="0" width="1445" height="1445">
<circle cx="1243.5" cy="722.5" r="722.5" fill="#EEE632"/>
<circle cx="1308.5" cy="705.5" r="43.5" fill="#FFDA57"/>
<circle cx="1431.5" cy="811.5" r="62.5" fill="#FFD12F"/>
</mask>
<g mask="url(#mask6_1046_24)">
<rect x="479" y="1125" width="1544" height="377" fill="#F9A723"/>
</g>
<mask id="mask7_1046_24" style="mask-type:alpha" maskUnits="userSpaceOnUse" x="521" y="0" width="1445" height="1445">
<circle cx="1243.5" cy="722.5" r="722.5" fill="#EEE632"/>
<circle cx="1308.5" cy="705.5" r="43.5" fill="#FFDA57"/>
<circle cx="1431.5" cy="811.5" r="62.5" fill="#FFD12F"/>
<mask id="mask8_1046_24" style="mask-type:alpha" maskUnits="userSpaceOnUse" x="521" y="0" width="1445" height="1445">
<circle cx="1243.5" cy="722.5" r="722.5" fill="#FFF517"/>
<circle cx="1308.5" cy="705.5" r="43.5" fill="#F49300"/>
<circle cx="1431.5" cy="811.5" r="62.5" fill="#FFC700"/>
</mask>
<g mask="url(#mask8_1046_24)">
<rect x="479" y="1125" width="1544" height="377" fill="#F9A723"/>
</g>
</mask>
<g mask="url(#mask7_1046_24)">
<path d="M885 428H1732.5" stroke="#FDFFE8" stroke-width="200" stroke-linecap="round"/>
<path d="M1168 56H1535.5" stroke="#FFEEB1" stroke-width="200" stroke-linecap="round"/>
<path d="M137 342H921" stroke="#FFEF9D" stroke-width="160" stroke-linecap="round"/>
<rect x="-9" y="595" width="1221" height="558" rx="279" fill="#FF9A62"/>
<path d="M912 1070L1855 1064.92" stroke="#FFEEB1" stroke-width="200" stroke-linecap="round"/>
<path d="M542 1226H1085.5" stroke="#FFEF9D" stroke-width="170" stroke-linecap="round"/>
</g>
</mask>
<g mask="url(#mask5_1046_24)">
<circle cx="1042.5" cy="953.5" r="722.5" fill="black" fill-opacity="0.3"/>
</g>
<path d="M470 929C746.554 968.24 1433.33 1023.18 1968 929" stroke="#FFF3C6" stroke-width="100" stroke-linecap="round"/>
<path d="M2065.07 51.2164C2065.88 46.8551 2072.12 46.8551 2072.93 51.2164L2089.61 141.188C2090.19 144.308 2094 145.545 2096.3 143.361L2162.68 80.3755C2165.89 77.3224 2170.95 80.9955 2169.04 84.999L2129.65 167.591C2128.28 170.455 2130.63 173.693 2133.78 173.279L2224.5 161.339C2228.9 160.76 2230.83 166.703 2226.93 168.82L2146.52 212.485C2143.73 213.999 2143.73 218.001 2146.52 219.515L2226.93 263.18C2230.83 265.297 2228.9 271.24 2224.5 270.661L2133.78 258.721C2130.63 258.307 2128.28 261.545 2129.65 264.409L2169.04 347.001C2170.95 351.005 2165.89 354.678 2162.68 351.625L2096.3 288.639C2094 286.455 2090.19 287.692 2089.61 290.812L2072.93 380.784C2072.12 385.145 2065.88 385.145 2065.07 380.784L2048.39 290.812C2047.81 287.692 2044 286.455 2041.7 288.639L1975.32 351.625C1972.11 354.678 1967.05 351.005 1968.96 347.001L2008.35 264.409C2009.72 261.545 2007.37 258.307 2004.22 258.721L1913.5 270.661C1909.1 271.24 1907.17 265.297 1911.07 263.18L1991.48 219.515C1994.27 218.001 1994.27 213.999 1991.48 212.485L1911.07 168.82C1907.17 166.703 1909.1 160.76 1913.5 161.339L2004.22 173.279C2007.37 173.693 2009.72 170.455 2008.35 167.591L1968.96 84.999C1967.05 80.9955 1972.11 77.3224 1975.32 80.3755L2041.7 143.361C2044 145.545 2047.81 144.308 2048.39 141.188L2065.07 51.2164Z" fill="#FFC700"/>
<path d="M2065.07 116.37C2065.88 112.008 2072.13 112.008 2072.93 116.37L2081.92 164.857C2082.5 167.977 2086.31 169.214 2088.61 167.03L2124.38 133.086C2127.6 130.033 2132.65 133.706 2130.74 137.709L2109.52 182.22C2108.15 185.084 2110.5 188.322 2113.65 187.908L2162.54 181.473C2166.94 180.894 2168.87 186.837 2164.97 188.954L2121.63 212.486C2118.85 214 2118.85 218.002 2121.63 219.516L2164.97 243.048C2168.87 245.165 2166.94 251.108 2162.54 250.529L2113.65 244.094C2110.5 243.68 2108.15 246.918 2109.52 249.782L2130.74 294.292C2132.65 298.296 2127.6 301.969 2124.38 298.916L2088.61 264.972C2086.31 262.788 2082.5 264.025 2081.92 267.144L2072.93 315.632C2072.13 319.993 2065.88 319.993 2065.07 315.632L2056.08 267.144C2055.5 264.025 2051.69 262.788 2049.39 264.972L2013.62 298.916C2010.4 301.969 2005.35 298.296 2007.26 294.292L2028.49 249.782C2029.85 246.918 2027.5 243.68 2024.35 244.094L1975.46 250.529C1971.06 251.108 1969.13 245.165 1973.03 243.048L2016.37 219.516C2019.16 218.002 2019.16 214 2016.37 212.486L1973.03 188.954C1969.13 186.837 1971.06 180.894 1975.46 181.473L2024.35 187.908C2027.5 188.322 2029.85 185.084 2028.49 182.22L2007.26 137.709C2005.35 133.706 2010.4 130.033 2013.62 133.086L2049.39 167.03C2051.69 169.214 2055.5 167.977 2056.08 164.857L2065.07 116.37Z" fill="#FFF3C9"/>
<path d="M2067.03 166.009C2067.44 163.828 2070.56 163.828 2070.97 166.009L2075.48 190.364C2075.77 191.924 2077.67 192.542 2078.82 191.45L2096.79 174.4C2098.4 172.873 2100.93 174.71 2099.97 176.712L2089.31 199.069C2088.63 200.501 2089.8 202.12 2091.38 201.913L2115.94 198.681C2118.13 198.391 2119.1 201.363 2117.15 202.421L2095.38 214.241C2093.99 214.998 2093.99 217 2095.38 217.757L2117.15 229.577C2119.1 230.635 2118.13 233.607 2115.94 233.317L2091.38 230.085C2089.8 229.878 2088.63 231.497 2089.31 232.929L2099.97 255.286C2100.93 257.288 2098.4 259.125 2096.79 257.598L2078.82 240.548C2077.67 239.456 2075.77 240.074 2075.48 241.634L2070.97 265.989C2070.56 268.17 2067.44 268.17 2067.03 265.989L2062.52 241.634C2062.23 240.074 2060.33 239.456 2059.17 240.548L2041.21 257.598C2039.6 259.125 2037.07 257.288 2038.02 255.286L2048.69 232.929C2049.37 231.497 2048.19 229.878 2046.62 230.085L2022.06 233.317C2019.86 233.607 2018.9 230.635 2020.85 229.577L2042.62 217.757C2044.01 217 2044.01 214.998 2042.62 214.241L2020.85 202.421C2018.9 201.363 2019.86 198.391 2022.06 198.681L2046.62 201.913C2048.19 202.12 2049.37 200.501 2048.69 199.069L2038.02 176.712C2037.07 174.71 2039.6 172.873 2041.21 174.4L2059.17 191.45C2060.33 192.542 2062.23 191.924 2062.52 190.364L2067.03 166.009Z" fill="white"/>
<path d="M481.567 1161.22C482.375 1156.86 488.625 1156.86 489.433 1161.22L504.636 1243.23C505.215 1246.35 509.021 1247.59 511.323 1245.4L571.828 1187.99C575.046 1184.94 580.101 1188.61 578.192 1192.61L542.286 1267.9C540.92 1270.76 543.272 1274 546.418 1273.59L629.115 1262.7C633.513 1262.12 635.444 1268.07 631.546 1270.18L558.245 1309.98C555.456 1311.5 555.456 1315.5 558.245 1317.02L631.546 1356.82C635.444 1358.93 633.513 1364.88 629.115 1364.3L546.418 1353.41C543.272 1353 540.92 1356.24 542.286 1359.1L578.192 1434.39C580.101 1438.39 575.046 1442.06 571.828 1439.01L511.323 1381.6C509.021 1379.41 505.215 1380.65 504.636 1383.77L489.433 1465.78C488.625 1470.14 482.375 1470.14 481.567 1465.78L466.364 1383.77C465.785 1380.65 461.979 1379.41 459.677 1381.6L399.172 1439.01C395.954 1442.06 390.899 1438.39 392.808 1434.39L428.714 1359.1C430.08 1356.24 427.728 1353 424.582 1353.41L341.885 1364.3C337.487 1364.88 335.556 1358.93 339.454 1356.82L412.755 1317.02C415.544 1315.5 415.544 1311.5 412.755 1309.98L339.454 1270.18C335.556 1268.07 337.487 1262.12 341.885 1262.7L424.582 1273.59C427.728 1274 430.08 1270.76 428.714 1267.9L392.808 1192.61C390.899 1188.61 395.954 1184.94 399.172 1187.99L459.677 1245.4C461.979 1247.59 465.785 1246.35 466.364 1243.23L481.567 1161.22Z" fill="#FFC700"/>
<path d="M481.567 1221.99C482.376 1217.63 488.625 1217.63 489.433 1221.99L497.463 1265.31C498.042 1268.43 501.848 1269.66 504.15 1267.48L536.107 1237.16C539.324 1234.1 544.38 1237.78 542.47 1241.78L523.506 1281.54C522.14 1284.41 524.492 1287.64 527.638 1287.23L571.316 1281.48C575.713 1280.9 577.645 1286.85 573.747 1288.96L535.032 1309.99C532.243 1311.5 532.243 1315.5 535.032 1317.02L573.747 1338.04C577.645 1340.15 575.713 1346.1 571.316 1345.52L527.638 1339.77C524.492 1339.36 522.14 1342.59 523.506 1345.46L542.47 1385.22C544.38 1389.22 539.324 1392.9 536.107 1389.85L504.15 1359.52C501.848 1357.34 498.042 1358.57 497.463 1361.69L489.433 1405.01C488.625 1409.37 482.376 1409.37 481.567 1405.01L473.538 1361.69C472.959 1358.57 469.153 1357.34 466.851 1359.52L434.894 1389.84C431.677 1392.9 426.621 1389.22 428.531 1385.22L447.495 1345.46C448.861 1342.59 446.508 1339.36 443.363 1339.77L399.685 1345.52C395.287 1346.1 393.356 1340.15 397.254 1338.04L435.969 1317.02C438.758 1315.5 438.758 1311.5 435.969 1309.99L397.254 1288.96C393.356 1286.85 395.287 1280.9 399.685 1281.48L443.363 1287.23C446.508 1287.64 448.861 1284.41 447.495 1281.54L428.531 1241.78C426.621 1237.78 431.677 1234.1 434.894 1237.16L466.851 1267.48C469.153 1269.66 472.959 1268.43 473.538 1265.31L481.567 1221.99Z" fill="#FFF3C9"/>
<path d="M483.533 1267.58C483.937 1265.4 487.061 1265.4 487.466 1267.58L491.5 1289.34C491.789 1290.9 493.692 1291.52 494.843 1290.43L510.898 1275.19C512.507 1273.67 515.035 1275.5 514.08 1277.51L504.552 1297.48C503.869 1298.92 505.045 1300.53 506.618 1300.33L528.562 1297.44C530.761 1297.15 531.726 1300.12 529.777 1301.18L510.327 1311.74C508.933 1312.5 508.933 1314.5 510.327 1315.26L529.777 1325.82C531.726 1326.88 530.761 1329.85 528.562 1329.56L506.618 1326.67C505.045 1326.46 503.869 1328.08 504.552 1329.51L514.08 1349.49C515.035 1351.49 512.507 1353.33 510.898 1351.8L494.843 1336.57C493.692 1335.48 491.789 1336.1 491.5 1337.65L487.466 1359.42C487.061 1361.6 483.937 1361.6 483.533 1359.42L479.498 1337.65C479.209 1336.1 477.306 1335.48 476.155 1336.57L460.1 1351.8C458.491 1353.33 455.963 1351.49 456.918 1349.49L466.446 1329.51C467.129 1328.08 465.953 1326.46 464.38 1326.67L442.436 1329.56C440.237 1329.85 439.272 1326.88 441.221 1325.82L460.671 1315.26C462.065 1314.5 462.065 1312.5 460.671 1311.74L441.221 1301.18C439.272 1300.12 440.237 1297.15 442.436 1297.44L464.38 1300.33C465.953 1300.53 467.129 1298.92 466.446 1297.48L456.918 1277.51C455.963 1275.5 458.491 1273.67 460.1 1275.19L476.155 1290.43C477.306 1291.52 479.209 1290.9 479.498 1289.34L483.533 1267.58Z" fill="white"/>
<circle cx="288.5" cy="1240.5" r="29.5" fill="#FFBC50"/>
<circle cx="288.5" cy="1240.5" r="23.8603" fill="#FFEBCB"/>
<circle cx="288.283" cy="1240.72" r="18.4375" fill="#FFF1DC"/>
<circle cx="288.283" cy="1240.72" r="12.364" fill="white"/>
<circle cx="2322.5" cy="135.5" r="40.5" fill="#FFBC50"/>
<circle cx="2322.5" cy="135.5" r="32.7574" fill="#FFEBCB"/>
<circle cx="2322.2" cy="135.797" r="25.3125" fill="#FFF1DC"/>
<circle cx="2322.2" cy="135.797" r="16.9743" fill="white"/>
</svg>
