<svg width="232" height="367" viewBox="0 0 232 367" fill="none" xmlns="http://www.w3.org/2000/svg">
<circle cx="115.419" cy="184.074" r="71.2362" fill="#240C2A" fill-opacity="0.36"/>
<path fill-rule="evenodd" clip-rule="evenodd" d="M115.99 238.214C146.205 238.214 170.699 213.72 170.699 183.505C170.699 153.289 146.205 128.795 115.99 128.795C85.7743 128.795 61.2801 153.289 61.2801 183.505C61.2801 213.72 85.7743 238.214 115.99 238.214ZM115.99 226.178C139.558 226.178 158.663 207.072 158.663 183.505C158.663 159.937 139.558 140.831 115.99 140.831C92.4218 140.831 73.3163 159.937 73.3163 183.505C73.3163 207.072 92.4218 226.178 115.99 226.178Z" fill="#70438C"/>
<circle cx="115.42" cy="184.074" r="32.4837" fill="#7921D1"/>
<circle cx="115.989" cy="183.505" r="21.6558" fill="#DEB3FF"/>
<circle cx="115.99" cy="183.505" r="14.8171" fill="white"/>
<rect x="108.011" width="14.8171" height="161.849" fill="url(#paint0_linear_2308_357)"/>
<rect x="-6.10352e-05" y="190.943" width="14.8171" height="88.9936" transform="rotate(-90 -6.10352e-05 190.943)" fill="url(#paint1_linear_2308_357)"/>
<rect x="231.979" y="176.498" width="14.8171" height="88.9936" transform="rotate(90 231.979 176.498)" fill="url(#paint2_linear_2308_357)"/>
<rect x="122.828" y="367.009" width="14.8171" height="161.849" transform="rotate(180 122.828 367.009)" fill="url(#paint3_linear_2308_357)"/>
<defs>
<linearGradient id="paint0_linear_2308_357" x1="114.199" y1="161.849" x2="116.641" y2="1.3731e-06" gradientUnits="userSpaceOnUse">
<stop offset="0.2" stop-color="#7921D1"/>
<stop offset="0.935" stop-color="#AEB0F4" stop-opacity="0"/>
</linearGradient>
<linearGradient id="paint1_linear_2308_357" x1="6.18733" y1="279.936" x2="6.92587" y2="190.929" gradientUnits="userSpaceOnUse">
<stop offset="0.2" stop-color="#7921D1"/>
<stop offset="0.935" stop-color="#AEB0F4" stop-opacity="0"/>
</linearGradient>
<linearGradient id="paint2_linear_2308_357" x1="238.166" y1="265.492" x2="238.905" y2="176.484" gradientUnits="userSpaceOnUse">
<stop offset="0.2" stop-color="#7921D1"/>
<stop offset="0.935" stop-color="#AEB0F4" stop-opacity="0"/>
</linearGradient>
<linearGradient id="paint3_linear_2308_357" x1="129.016" y1="528.858" x2="131.458" y2="367.009" gradientUnits="userSpaceOnUse">
<stop offset="0.2" stop-color="#7921D1"/>
<stop offset="0.935" stop-color="#AEB0F4" stop-opacity="0"/>
</linearGradient>
</defs>
</svg>
