<svg width="101" height="160" viewBox="0 0 101 160" fill="none" xmlns="http://www.w3.org/2000/svg">
<circle cx="50.1558" cy="79.9898" r="30.9558" fill="#162765" fill-opacity="0.4"/>
<path fill-rule="evenodd" clip-rule="evenodd" d="M50.4034 103.516C63.5334 103.516 74.1774 92.8722 74.1774 79.7422C74.1774 66.6121 63.5334 55.9681 50.4034 55.9681C37.2733 55.9681 26.6293 66.6121 26.6293 79.7422C26.6293 92.8722 37.2733 103.516 50.4034 103.516ZM50.4037 98.286C60.6452 98.286 68.9475 89.9837 68.9475 79.7422C68.9475 69.5008 60.6452 61.1985 50.4037 61.1985C40.1623 61.1985 31.86 69.5008 31.86 79.7422C31.86 89.9837 40.1623 98.286 50.4037 98.286Z" fill="#3662BE"/>
<circle cx="50.1557" cy="79.9898" r="14.1159" fill="#78CFFA"/>
<circle cx="50.4033" cy="79.7422" r="9.41057" fill="#EBF5CC"/>
<circle cx="50.4034" cy="79.7422" r="6.43881" fill="white"/>
<rect x="46.9365" width="6.43881" height="70.3316" fill="url(#paint0_linear_2308_322)"/>
<rect x="-6.48499e-05" y="82.9744" width="6.43881" height="38.6723" transform="rotate(-90 -6.48499e-05 82.9744)" fill="url(#paint1_linear_2308_322)"/>
<rect x="100.807" y="76.6974" width="6.43881" height="38.6723" transform="rotate(90 100.807 76.6974)" fill="url(#paint2_linear_2308_322)"/>
<rect x="53.3752" y="159.484" width="6.43881" height="70.3316" transform="rotate(180 53.3752 159.484)" fill="url(#paint3_linear_2308_322)"/>
<defs>
<linearGradient id="paint0_linear_2308_322" x1="49.6252" y1="70.3317" x2="50.6865" y2="5.97463e-07" gradientUnits="userSpaceOnUse">
<stop offset="0.2" stop-color="#78CFFA"/>
<stop offset="0.935" stop-color="white" stop-opacity="0"/>
</linearGradient>
<linearGradient id="paint1_linear_2308_322" x1="2.68868" y1="121.647" x2="3.00961" y2="82.9683" gradientUnits="userSpaceOnUse">
<stop offset="0.2" stop-color="#78CFFA"/>
<stop offset="0.935" stop-color="white" stop-opacity="0"/>
</linearGradient>
<linearGradient id="paint2_linear_2308_322" x1="103.496" y1="115.37" x2="103.817" y2="76.6913" gradientUnits="userSpaceOnUse">
<stop offset="0.2" stop-color="#78CFFA"/>
<stop offset="0.935" stop-color="white" stop-opacity="0"/>
</linearGradient>
<linearGradient id="paint3_linear_2308_322" x1="56.0639" y1="229.816" x2="57.1252" y2="159.484" gradientUnits="userSpaceOnUse">
<stop offset="0.2" stop-color="#78CFFA"/>
<stop offset="0.935" stop-color="white" stop-opacity="0"/>
</linearGradient>
</defs>
</svg>
