<svg width="1600" height="421" viewBox="0 0 1600 421" fill="none" xmlns="http://www.w3.org/2000/svg">
<path fill-rule="evenodd" clip-rule="evenodd" d="M1527.32 229.936C1519.87 232.568 1511.85 234 1503.5 234C1464.01 234 1432 201.988 1432 162.5C1432 123.012 1464.01 91 1503.5 91C1532.49 91 1557.46 108.259 1568.68 133.064C1576.13 130.432 1584.15 129 1592.5 129C1631.99 129 1664 161.012 1664 200.5C1664 239.988 1631.99 272 1592.5 272C1563.51 272 1538.54 254.741 1527.32 229.936Z" fill="#D13318" fill-opacity="0.5"/>
<path fill-rule="evenodd" clip-rule="evenodd" d="M65.0449 52.5417C53.2856 1.80963 7.80829 -36 -46.5 -36C-96.271 -36 -138.625 -4.24419 -154.406 40.1113C-156.095 40.0374 -157.793 40 -159.5 40C-222.737 40 -274 91.2634 -274 154.5C-274 175.13 -268.544 194.487 -258.996 211.204C-289.746 231.734 -310 266.752 -310 306.5C-310 369.737 -258.737 421 -195.5 421C-145.729 421 -103.375 389.244 -87.594 344.889C-85.9052 344.963 -84.207 345 -82.5 345C-61.2529 345 -41.3576 339.213 -24.3042 329.129C-11.3537 334.21 2.74734 337 17.5 337C67.271 337 109.625 305.244 125.406 260.889C127.095 260.963 128.793 261 130.5 261C193.737 261 245 209.737 245 146.5C245 83.2634 193.737 32 130.5 32C106.161 32 83.5962 39.5939 65.0449 52.5417Z" fill="#A33F1F" fill-opacity="0.5"/>
<path fill-rule="evenodd" clip-rule="evenodd" d="M219 -183.949C195.668 -208.613 162.631 -224 126 -224C65.8568 -224 15.4017 -182.52 1.68253 -126.607C-12.5057 -132.03 -27.906 -135 -44 -135C-114.692 -135 -172 -77.6924 -172 -7C-172 63.6924 -114.692 121 -44 121C-26.4748 121 -9.77217 117.478 5.43861 111.103C23.1329 160.59 70.4312 196 126 196C178.181 196 223.069 164.776 243 119.992C262.931 164.776 307.819 196 360 196C419.994 196 470.347 154.726 484.214 99.0244C497.31 103.545 511.368 106 526 106C596.692 106 654 48.6924 654 -22C654 -92.6924 596.692 -150 526 -150C492.176 -150 461.416 -136.88 438.531 -115.452C429.161 -176.913 376.079 -224 312 -224C275.369 -224 242.332 -208.613 219 -183.949ZM244.494 12.7726C243.005 11.846 241.535 10.8897 240.087 9.9045C241.11 11.909 242.081 13.9441 243 16.0079C243.484 14.9214 243.982 13.8429 244.494 12.7726Z" fill="#003D4F"/>
<path fill-rule="evenodd" clip-rule="evenodd" d="M1435 -178.949C1411.67 -203.613 1378.63 -219 1342 -219C1281.86 -219 1231.4 -177.52 1217.68 -121.607C1203.49 -127.03 1188.09 -130 1172 -130C1101.31 -130 1044 -72.6924 1044 -2C1044 68.6924 1101.31 126 1172 126C1189.53 126 1206.23 122.478 1221.44 116.103C1239.13 165.59 1286.43 201 1342 201C1394.18 201 1439.07 169.776 1459 124.992C1478.93 169.776 1523.82 201 1576 201C1635.99 201 1686.35 159.726 1700.21 104.024C1713.31 108.545 1727.37 111 1742 111C1812.69 111 1870 53.6924 1870 -17C1870 -87.6924 1812.69 -145 1742 -145C1708.18 -145 1677.42 -131.88 1654.53 -110.452C1645.16 -171.913 1592.08 -219 1528 -219C1491.37 -219 1458.33 -203.613 1435 -178.949ZM1460.49 17.7726C1459 16.846 1457.54 15.8897 1456.09 14.9045C1457.11 16.909 1458.08 18.9441 1459 21.0079C1459.48 19.9214 1459.98 18.8429 1460.49 17.7726Z" fill="#003D4F"/>
<path fill-rule="evenodd" clip-rule="evenodd" d="M1084.64 87.8753C1064.54 102.154 1039.97 110.549 1013.44 110.549C993.597 110.549 974.848 105.851 958.248 97.5063C955.019 162.589 901.228 214.365 835.344 214.365C786.657 214.365 744.574 186.09 724.619 145.066C703.505 162.102 676.645 172.302 647.403 172.302C635.512 172.302 624.015 170.615 613.138 167.468C598.948 219.759 551.148 258.217 494.366 258.217C447.642 258.217 406.999 232.177 386.161 193.817C366.659 206.799 343.242 214.365 318.057 214.365C250.095 214.365 195 159.27 195 91.3076C195 23.345 250.095 -31.7496 318.057 -31.7496C364.781 -31.7496 405.423 -5.70895 426.262 32.6509C445.764 19.6686 469.181 12.1032 494.366 12.1032C506.257 12.1032 517.754 13.7897 528.63 16.9366C542.82 -35.3539 590.62 -73.8128 647.403 -73.8128C696.09 -73.8128 738.173 -45.5383 758.128 -4.51358C779.242 -21.5497 806.102 -31.7496 835.344 -31.7496C855.19 -31.7496 873.939 -27.0516 890.539 -18.7069C893.768 -83.7895 947.559 -135.565 1013.44 -135.565C1081.41 -135.565 1136.5 -80.4709 1136.5 -12.5082C1136.5 -11.3604 1136.48 -10.2162 1136.45 -9.07594C1156.55 -23.3545 1181.12 -31.7496 1207.65 -31.7496C1275.61 -31.7496 1330.7 23.345 1330.7 91.3076C1330.7 159.27 1275.61 214.365 1207.65 214.365C1139.69 214.365 1084.59 159.27 1084.59 91.3076C1084.59 90.1598 1084.61 89.0156 1084.64 87.8753Z" fill="#FFBB00"/>
<path fill-rule="evenodd" clip-rule="evenodd" d="M1075.81 63.2362C1054.36 75.009 1029.74 81.7046 1003.55 81.7046C952.527 81.7046 907.439 56.2885 880.258 17.4261C855.598 66.7688 804.598 100.653 745.685 100.653C718.261 100.653 692.552 93.3107 670.417 80.485C654.782 146.835 595.193 196.219 524.069 196.219C470.903 196.219 424.182 168.624 397.448 126.975C377.123 157.305 342.532 177.271 303.279 177.271C240.717 177.271 190 126.554 190 63.9915C190 1.42911 240.717 -49.2877 303.279 -49.2877C335.861 -49.2877 365.231 -35.5317 385.897 -13.5107C408.922 -67.0195 462.12 -104.485 524.069 -104.485C551.493 -104.485 577.202 -97.1431 599.337 -84.3175C614.972 -150.667 674.561 -200.052 745.685 -200.052C796.709 -200.052 841.796 -174.636 868.977 -135.773C893.638 -185.116 944.637 -219 1003.55 -219C1080.71 -219 1144.3 -160.872 1152.91 -86.0168C1174.35 -97.7895 1198.98 -104.485 1225.17 -104.485C1308.2 -104.485 1375.52 -37.1702 1375.52 45.8671C1375.52 128.904 1308.2 196.219 1225.17 196.219C1148 196.219 1084.42 138.092 1075.81 63.2362Z" fill="#FF6711"/>
<path fill-rule="evenodd" clip-rule="evenodd" d="M354.5 43C417.184 43 468 -7.81567 468 -70.5C468 -133.184 417.184 -184 354.5 -184C306.206 -184 264.956 -153.837 248.562 -111.322C232.489 -120.045 214.073 -125 194.5 -125C131.816 -125 81 -74.1843 81 -11.5C81 51.1843 131.816 102 194.5 102C242.794 102 284.044 71.837 300.438 29.322C316.511 38.0454 334.927 43 354.5 43Z" fill="#D13318"/>
<circle cx="1412.5" cy="-17.5" r="108.5" fill="#1B163F"/>
<circle cx="1536" cy="60" r="104" fill="#1B163F"/>
<circle cx="1573" cy="-24" r="128" fill="#003D4F"/>
</svg>
