<svg width="1047" height="898" viewBox="0 0 1047 898" fill="none" xmlns="http://www.w3.org/2000/svg">
<path fill-rule="evenodd" clip-rule="evenodd" d="M801.212 88.8518C799.135 83.2957 798 77.2804 798 71C798 42.8335 820.833 20 849 20C870.653 20 889.155 33.4946 896.554 52.5327C911.336 43.9284 928.522 39 946.858 39C1002.16 39 1047 83.835 1047 139.142C1047 188.246 1011.66 229.095 965.024 237.64C971.378 250.796 974.94 265.553 974.94 281.142C974.94 321.011 951.641 355.439 917.916 371.551C921.199 379.26 923.015 387.742 923.015 396.649C923.015 432.057 894.311 460.761 858.903 460.761C854.735 460.761 850.66 460.363 846.713 459.604C846.715 459.813 846.716 460.022 846.716 460.231C846.716 488.149 828.872 511.899 803.967 520.698C805.291 525.236 806 530.035 806 535C806 562.97 783.484 585.681 755.589 585.997C756.506 589.003 757 592.194 757 595.5C757 613.449 742.449 628 724.5 628C706.551 628 692 613.449 692 595.5C692 581.356 701.035 569.323 713.648 564.856C707.578 556.463 704 546.149 704 535C704 517.138 713.182 501.421 727.084 492.312C721.62 482.876 718.493 471.919 718.493 460.231C718.493 453.868 719.42 447.721 721.146 441.918C703.599 430.479 692 410.68 692 388.172C692 363.97 705.41 342.9 725.205 331.988C720.909 323.38 718.493 313.67 718.493 303.396C718.493 289.367 722.998 276.391 730.641 265.836C711.997 247.063 700.478 221.205 700.478 192.657C700.478 136.344 745.298 90.4999 801.212 88.8518Z" fill="#A20114" fill-opacity="0.6"/>
<g opacity="0.8">
<rect x="526.711" width="44.6492" height="568.991" fill="white"/>
<path d="M583.074 40.0698V506.366" stroke="#FFC803" stroke-width="30" stroke-linecap="round"/>
<path d="M514.455 40.0698V506.366" stroke="#FFC803" stroke-width="30" stroke-linecap="round"/>
<circle cx="583.073" cy="511.209" r="50.2102" fill="#FD5600"/>
<circle cx="572.196" cy="499.493" r="29.2893" fill="#FF7F00"/>
<path d="M492.695 452.63V531.293" stroke="#FE5600" stroke-width="30" stroke-linecap="round"/>
<path d="M604.832 83.5857V459.373" stroke="#FD8001" stroke-width="30" stroke-linecap="round"/>
<path d="M624.082 383.597V470.212" stroke="#FD8001" stroke-width="30" stroke-linecap="round"/>
<path d="M492.695 358.068V404.938" stroke="#FE5600" stroke-width="30" stroke-linecap="round"/>
<path d="M492.695 173.964V220.834" stroke="#FE5600" stroke-width="30" stroke-linecap="round"/>
<path d="M492.695 263.505V313.716" stroke="#FE5600" stroke-width="30" stroke-linecap="round"/>
<circle cx="597.719" cy="241.329" r="14.6446" fill="#FFC803"/>
<circle cx="619.477" cy="188.608" r="14.6446" fill="#FFC803"/>
<circle cx="806.645" cy="290.645" r="14.6446" fill="#FD8001"/>
<circle cx="417.645" cy="173.645" r="14.6446" fill="#FE5600"/>
<path d="M660 354.14C659.999 320.14 678.5 225 755.5 265" stroke="#FD8001" stroke-width="30" stroke-linecap="round"/>
<path d="M310.536 257.115C362.5 179.5 451.781 239.756 448.562 379.029" stroke="#FE5600" stroke-width="30" stroke-linecap="round"/>
<path d="M286 289C281.111 294.785 273 309.301 273 326" stroke="#FE5600" stroke-width="30" stroke-linecap="round"/>
<path d="M215 759C215 742.431 228.431 729 245 729H947C963.569 729 977 742.431 977 759V789C977 805.569 963.569 819 947 819H245C228.431 819 215 805.569 215 789V759Z" fill="#1D002A"/>
<path fill-rule="evenodd" clip-rule="evenodd" d="M585.47 531.27C565.819 519.13 540.997 519.13 521.346 531.27L243.786 702.753C191.508 735.052 214.397 815.648 275.848 815.648H830.968C832.621 815.648 834.245 815.589 835.841 815.475H914.565C972.963 815.475 997.981 741.318 951.517 705.942L778.338 574.086C756.507 557.464 726.264 557.464 704.433 574.086L682.186 591.024L585.47 531.27Z" fill="#160040"/>
<path d="M693.07 642.517L728.338 672.522" stroke="#210A4E" stroke-width="30" stroke-linecap="round"/>
<path d="M489.928 561.814C500.978 548.939 536.416 531.573 559.406 541.359C589.383 554.12 646.635 605.499 668.031 622.169" stroke="#210A4E" stroke-width="30" stroke-linecap="round"/>
<path d="M466.295 563.884C513.201 534.914 553.407 489.389 643.34 563.884L842.604 729.427" stroke="#890148" stroke-width="20" stroke-linecap="round"/>
<path d="M428.186 589.209C447.836 577.069 472.657 577.069 492.307 589.209L676.094 702.752C728.374 735.051 705.485 815.648 644.033 815.648H276.46C215.008 815.648 192.12 735.051 244.399 702.752L428.186 589.209Z" fill="#0F002B"/>
<path d="M535.074 655.278L707.887 761.156" stroke="#210A4E" stroke-width="30" stroke-linecap="round"/>
<ellipse cx="506.86" cy="633.55" rx="11.2857" ry="11.0362" fill="#210A4E"/>
</g>
</svg>
