<svg width="54" height="54" viewBox="0 0 54 54" fill="none" xmlns="http://www.w3.org/2000/svg">
<circle cx="27" cy="27" r="27" fill="white"/>
<path fill-rule="evenodd" clip-rule="evenodd" d="M37.54 26.7613C37.54 25.9459 37.4668 25.1618 37.3309 24.4091H26.5V28.8575H32.6891C32.4225 30.295 31.6123 31.5129 30.3943 32.3284V35.2138H34.1109C36.2855 33.2118 37.54 30.2636 37.54 26.7613Z" fill="#4285F4"/>
<path fill-rule="evenodd" clip-rule="evenodd" d="M26.4995 37.9998C29.6045 37.9998 32.2077 36.97 34.1104 35.2137L30.3938 32.3282C29.364 33.0182 28.0467 33.4259 26.4995 33.4259C23.5042 33.4259 20.969 31.403 20.0647 28.6848H16.2227V31.6644C18.1149 35.4228 22.004 37.9998 26.4995 37.9998Z" fill="#34A853"/>
<path fill-rule="evenodd" clip-rule="evenodd" d="M20.0652 28.6851C19.8352 27.9951 19.7045 27.2581 19.7045 26.5001C19.7045 25.7422 19.8352 25.0051 20.0652 24.3151V21.3356H16.2232C15.4443 22.8881 15 24.6444 15 26.5001C15 28.3558 15.4443 30.1122 16.2232 31.6647L20.0652 28.6851Z" fill="#FBBC05"/>
<path fill-rule="evenodd" clip-rule="evenodd" d="M26.4995 19.5739C28.1879 19.5739 29.7038 20.1541 30.8956 21.2936L34.194 17.9952C32.2024 16.1395 29.5992 15 26.4995 15C22.004 15 18.1149 17.577 16.2227 21.3355L20.0647 24.315C20.969 21.5968 23.5042 19.5739 26.4995 19.5739Z" fill="#EA4335"/>
</svg>
