<svg width="54" height="54" viewBox="0 0 54 54" fill="none" xmlns="http://www.w3.org/2000/svg">
<circle cx="27" cy="27" r="27" fill="#FFE812"/>
<g clip-path="url(#clip0_1895_363)">
<path d="M26.4953 15.8789C19.5952 15.8789 14 20.318 14 25.796C14 29.3378 16.3376 32.4405 19.8581 34.2019L18.5907 38.7591C18.5907 38.7591 18.5672 38.9716 18.7033 39.0519C18.8395 39.1321 19.0038 39.0707 19.0038 39.0707C19.398 39.0141 23.5569 36.072 24.2845 35.562C25.0026 35.6659 25.749 35.7178 26.5047 35.7178C33.4048 35.7178 39 31.2787 39 25.8007C39 20.3227 33.3954 15.8789 26.4953 15.8789Z" fill="black"/>
<path d="M19.5857 29.2527C19.1868 29.2527 18.8629 28.941 18.8629 28.5585V24.2469H17.7363C17.3467 24.2469 17.0322 23.9305 17.0322 23.5385C17.0322 23.1466 17.3514 22.8302 17.7363 22.8302H21.4305C21.8201 22.8302 22.1346 23.1466 22.1346 23.5385C22.1346 23.9305 21.8154 24.2469 21.4305 24.2469H20.3039V28.5585C20.3039 28.9363 19.9753 29.2527 19.581 29.2527H19.5857ZM25.9085 29.2432C25.6081 29.2432 25.3781 29.1204 25.3077 28.9221L24.9509 27.9776H22.7542L22.3974 28.9221C22.327 29.1204 22.097 29.2432 21.7966 29.2432C21.637 29.2432 21.4821 29.2102 21.3366 29.1488C21.1394 29.0543 20.947 28.804 21.1676 28.1193L22.8903 23.5527C23.0123 23.2032 23.3831 22.8443 23.8525 22.8349C24.3219 22.8254 24.6975 23.2032 24.8148 23.5527L26.5375 28.1193C26.7581 28.804 26.5656 29.0638 26.3685 29.1488C26.2277 29.2149 26.0681 29.2432 25.9085 29.2432ZM24.5707 26.6931L23.8525 24.6341L23.1344 26.6931H24.5707ZM27.6969 29.1488C27.3214 29.1488 27.0069 28.8513 27.0069 28.4876V23.5527C27.0069 23.1513 27.3355 22.8254 27.7438 22.8254C28.1522 22.8254 28.4808 23.156 28.4808 23.5527V27.8123H30.011C30.3865 27.8123 30.701 28.1098 30.701 28.4735C30.701 28.8371 30.3912 29.1346 30.011 29.1346L27.6969 29.1488ZM30.978 28.516V23.5574C30.978 23.156 31.3065 22.8302 31.7008 22.8302C32.0951 22.8302 32.4237 23.1607 32.4237 23.5574V25.1158L34.4421 23.0852C34.6643 22.8616 35.0843 22.8812 35.3386 23.1371C35.5776 23.3775 35.6397 23.7838 35.3903 24.0391L33.738 25.692L35.5123 28.0532C35.7507 28.3602 35.6929 28.8384 35.3715 29.0638C35.0547 29.2999 34.5892 29.2212 34.3623 28.9221L32.6725 26.6695L32.4237 26.9198V28.5018C32.4237 29.4441 30.978 29.4804 30.978 28.516Z" fill="#FFE812"/>
</g>
<defs>
<clipPath id="clip0_1895_363">
<rect width="25" height="25" fill="white" transform="translate(14 15)"/>
</clipPath>
</defs>
</svg>
