<svg width="636" height="412" viewBox="0 0 636 412" fill="none" xmlns="http://www.w3.org/2000/svg">
<path d="M88.7155 131.2H91.4655C96.5989 131.2 99.5322 134.225 100.266 140.275C100.266 145.592 93.0239 148.25 78.5405 148.25C55.2572 157.05 39.5822 169.883 31.5155 186.75L29.5905 194.725V196.375C29.5905 204.442 34.9989 208.475 45.8155 208.475L76.0655 206.825C96.4155 206.825 110.166 216.725 117.316 236.525L118.966 246.15C118.966 265.217 103.566 282.633 72.7655 298.4C63.5989 300.967 55.5322 302.708 48.5655 303.625C29.8655 303.625 16.6655 293.083 8.96553 272C6.76553 264.85 5.66553 257.608 5.66553 250.275C5.66553 248.075 7.40719 245.783 10.8905 243.4H14.1905C19.8739 243.4 22.7155 250.642 22.7155 265.125C27.4822 279.425 34.9989 286.575 45.2655 286.575H52.6905C67.5405 286.575 82.2072 277.958 96.6905 260.725C100.541 255.225 102.466 249.267 102.466 242.85C102.466 233.867 95.4072 227.542 81.2905 223.875H80.1905L44.1655 224.7C24.1822 222.317 14.1905 214.067 14.1905 199.95L13.0905 196.375C13.0905 177.492 27.2072 159.158 55.4405 141.375C67.7239 134.592 78.8155 131.2 88.7155 131.2ZM181.412 113.325H185.812C215.695 113.325 234.854 124.142 243.287 145.775L244.112 154.575V157.325C244.112 178.592 231.187 198.3 205.337 216.45C199.104 218.283 195.987 220.3 195.987 222.5C203.32 250.55 206.987 273.467 206.987 291.25V294.825C206.987 302.158 203.962 305.825 197.912 305.825C193.329 305.275 191.037 302.983 191.037 298.95V292.075C191.037 270.992 187.187 248.075 179.487 223.325C164.637 222.042 156.387 218.008 154.737 211.225V209.575C154.737 206.275 157.304 203.708 162.437 201.875L174.537 206V205.45C168.304 178.317 165.187 159.983 165.187 150.45C165.187 145.133 168.304 142.475 174.537 142.475C180.22 142.475 183.062 152.192 183.062 171.625L191.037 204.35C204.237 199.95 214.504 191.333 221.837 178.5C225.687 171.167 227.612 164.658 227.612 158.975V155.4C227.612 140.367 214.779 131.842 189.112 129.825H177.837C152.72 132.575 140.162 138.533 140.162 147.7V149.35C140.162 152.1 141.629 156.408 144.562 162.275C144.562 166.308 141.354 168.875 134.937 169.975C127.604 166.492 123.937 159.342 123.937 148.525C123.937 128.358 143.095 116.625 181.412 113.325ZM312.883 130.65L319.758 128.45C325.992 128.45 329.108 136.7 329.108 153.2L337.633 216.725L338.733 217.825L370.359 206.275C374.575 206.275 376.867 209.483 377.234 215.9C377.234 220.667 365.592 226.442 342.309 233.225L341.208 233.775V234.875C341.208 238.725 347.259 258.8 359.359 295.1V295.65C359.359 299.133 356.517 302.067 350.833 304.45C345.517 304.45 342.034 298.125 340.384 285.475C336.167 276.308 331.034 261.183 324.984 240.1H323.884C299.867 245.05 287.858 249.267 287.858 252.75C274.658 281.35 264.667 295.65 257.883 295.65C254.033 295.65 251.742 293.175 251.008 288.225C251.008 283.825 255.867 275.208 265.583 262.375L269.983 252.75H263.108L257.883 253.85C251.1 252.2 247.708 248.717 247.708 243.4C250.458 236.983 254.492 233.775 259.808 233.775L266.683 236.525C276.95 236.525 282.083 232.767 282.083 225.25C291.433 203.25 301.7 171.717 312.883 130.65ZM315.359 180.7L299.133 229.65C314.167 226.717 321.683 223.875 321.683 221.125C318.933 194.175 316.825 180.7 315.359 180.7ZM420.32 151.275C432.787 151.275 440.029 160.258 442.045 178.225C442.045 193.075 438.562 202.425 431.595 206.275H429.945C424.629 205.908 421.97 203.983 421.97 200.5L423.07 179.875V169.7L421.42 167.775H418.67C412.804 167.775 405.929 184.092 398.045 216.725L396.395 237.35V243.4C396.395 262.467 404.92 273.65 421.97 276.95H433.52C452.587 276.95 475.687 264.667 502.82 240.1H503.92C508.87 240.1 511.712 243.217 512.445 249.45C508.229 260.45 503.279 265.95 497.595 265.95C471.379 284.65 447.82 294 426.92 294C406.02 294 391.262 282.542 382.645 259.625L380.17 240.1V236.525C380.17 208.108 388.145 181.983 404.095 158.15C409.229 153.567 414.637 151.275 420.32 151.275ZM605.395 135.325C608.695 135.325 610.987 138.167 612.27 143.85C612.27 147.15 606.495 151.733 594.945 157.6C580.645 170.067 570.012 191.517 563.045 221.95V226.9C578.995 219.017 590.454 214.25 597.42 212.6C599.62 212.6 602.279 214.525 605.395 218.375V223.6C605.395 225.617 597.329 229.65 581.195 235.7C569.095 242.3 563.045 246.058 563.045 246.975V249.45C563.045 259.717 569.645 268.608 582.845 276.125L592.195 277.775C598.245 277.775 607.229 274.017 619.145 266.5H622.445C626.295 268.333 628.22 270.992 628.22 274.475V276.125C616.854 288.042 604.295 294 590.545 294C570.929 294 556.629 280.8 547.645 254.4L530.32 257.975C521.887 256.692 517.67 253.942 517.67 249.725C517.67 245.508 520.145 242.483 525.095 240.65L531.42 241.75C540.954 239 545.72 236.983 545.72 235.7C545.72 204.533 557.545 175.658 581.195 149.075C593.112 139.908 601.179 135.325 605.395 135.325Z" fill="white"/>
</svg>
