<svg width="669" height="825" viewBox="0 0 669 825" fill="none" xmlns="http://www.w3.org/2000/svg">
<path d="M372.076 427.805C352.161 405.119 316.839 405.119 296.924 427.805L117.662 632.015C89.2973 664.327 112.242 715 155.238 715H513.762C556.758 715 579.703 664.327 551.338 632.014L372.076 427.805Z" fill="#224DCB"/>
<circle cx="12" cy="12" r="12" transform="matrix(-1 0 0 1 379 525)" fill="#C02D2D"/>
<circle cx="12" cy="12" r="12" transform="matrix(-1 0 0 1 347 525)" fill="#FCB40C"/>
<circle cx="12" cy="12" r="12" transform="matrix(-1 0 0 1 315 525)" fill="#559303"/>
<circle cx="204.5" cy="204.5" r="204.5" transform="matrix(-1 0 0 1 539 104)" fill="#2D2664"/>
<circle cx="204.5" cy="204.5" r="204.5" transform="matrix(-1 0 0 1 539 104)" fill="#080049"/>
<path d="M347 512.622C454.121 506.163 539 417.245 539 308.5C539 199.755 454.121 110.836 347 104.377V512.622Z" fill="#F5B4C9"/>
<path d="M335.334 104C234.481 104 151.139 175.8 137.999 268.938C196.071 266.549 245.146 230.914 264.996 181.403C285.294 233.164 337.448 270 398.588 270C446.645 270 489.152 247.241 515 212.365C482.909 148.264 414.52 104 335.334 104Z" fill="#080049"/>
<path d="M347.255 294C333.001 294 319.331 299.662 309.252 309.741C299.173 319.821 293.511 333.491 293.511 347.745C293.511 361.999 299.173 375.669 309.252 385.748C319.331 395.827 333.001 401.489 347.255 401.489L347.255 347.745V294Z" fill="#F3A7BF"/>
<path d="M347.255 310.653C337.418 310.653 327.984 314.561 321.028 321.517C314.072 328.473 310.164 337.907 310.164 347.745C310.164 357.582 314.072 367.016 321.028 373.972C327.984 380.928 337.418 384.836 347.255 384.836L347.255 347.745V310.653Z" fill="#CB7878"/>
<circle cx="29.5208" cy="29.5208" r="29.5208" transform="matrix(-1 0 0 1 489 288)" fill="#130B76"/>
<circle cx="287" cy="287" r="287" transform="matrix(-1 0 0 1 621 0)" fill="white" fill-opacity="0.15"/>
<rect width="378" height="89" rx="44.5" transform="matrix(-1 0 0 1 525 492)" fill="#6E6E6E"/>
</svg>
