<svg width="669" height="825" viewBox="0 0 669 825" fill="none" xmlns="http://www.w3.org/2000/svg">
<path d="M296.924 427.805C316.839 405.119 352.161 405.119 372.076 427.805L551.338 632.015C579.703 664.327 556.758 715 513.762 715H155.238C112.242 715 89.2973 664.327 117.662 632.014L296.924 427.805Z" fill="#224DCB"/>
<path d="M522.383 287C535.974 287 549.008 292.399 558.618 302.009C568.229 311.619 573.628 324.654 573.628 338.245C573.628 351.836 568.229 364.87 558.618 374.48C549.008 384.09 535.974 389.489 522.383 389.489L522.383 338.245V287Z" fill="#F3A7BF"/>
<path d="M522.383 302.879C531.763 302.879 540.758 306.605 547.39 313.237C554.023 319.87 557.749 328.865 557.749 338.245C557.749 347.624 554.023 356.62 547.391 363.252C540.758 369.885 531.763 373.611 522.383 373.611L522.383 338.245V302.879Z" fill="#CB7878"/>
<path d="M146.245 389C132.654 389 119.619 383.601 110.009 373.991C100.399 364.381 95 351.346 95 337.755C95 324.164 100.399 311.13 110.009 301.52C119.619 291.91 132.654 286.511 146.245 286.511L146.245 337.755V389Z" fill="#F3A7BF"/>
<path d="M146.245 373.121C136.865 373.121 127.87 369.395 121.237 362.763C114.605 356.13 110.879 347.135 110.879 337.755C110.879 328.376 114.605 319.38 121.237 312.748C127.87 306.115 136.865 302.389 146.245 302.389L146.245 337.755V373.121Z" fill="#CB7878"/>
<circle cx="302" cy="537" r="12" fill="#C02D2D"/>
<circle cx="334" cy="537" r="12" fill="#FCB40C"/>
<circle cx="366" cy="537" r="12" fill="#559303"/>
<circle cx="334" cy="287" r="287" fill="white" fill-opacity="0.15"/>
<circle cx="334.5" cy="308.5" r="204.5" fill="#2D2664"/>
<rect x="144" y="492" width="378" height="89" rx="44.5" fill="#6E6E6E"/>
</svg>
