<svg width="669" height="825" viewBox="0 0 669 825" fill="none" xmlns="http://www.w3.org/2000/svg">
<path d="M296.924 427.805C316.839 405.119 352.161 405.119 372.076 427.805L551.338 632.015C579.703 664.327 556.758 715 513.762 715H155.238C112.242 715 89.2973 664.327 117.662 632.014L296.924 427.805Z" fill="#224DCB"/>
<circle cx="302" cy="537" r="12" fill="#C02D2D"/>
<circle cx="334" cy="537" r="12" fill="#FCB40C"/>
<circle cx="366" cy="537" r="12" fill="#559303"/>
<circle cx="334.5" cy="308.5" r="204.5" fill="#2D2664"/>
<circle cx="334.5" cy="308.5" r="204.5" fill="#080049"/>
<path d="M322 512.622C214.879 506.163 130 417.245 130 308.5C130 199.755 214.879 110.836 322 104.377V512.622Z" fill="#F5B4C9"/>
<path d="M333.666 104C434.519 104 517.861 175.8 531.001 268.938C472.929 266.549 423.854 230.914 404.004 181.403C383.706 233.164 331.552 270 270.412 270C222.355 270 179.848 247.241 154 212.365C186.091 148.264 254.48 104 333.666 104Z" fill="#080049"/>
<path d="M321.745 294C335.999 294 349.669 299.662 359.748 309.741C369.827 319.821 375.489 333.491 375.489 347.745C375.489 361.999 369.827 375.669 359.748 385.748C349.669 395.827 335.999 401.489 321.745 401.489L321.745 347.745V294Z" fill="#F3A7BF"/>
<path d="M321.745 310.653C331.582 310.653 341.016 314.561 347.972 321.517C354.928 328.473 358.836 337.907 358.836 347.745C358.836 357.582 354.928 367.016 347.972 373.972C341.016 380.928 331.582 384.836 321.745 384.836L321.745 347.745V310.653Z" fill="#CB7878"/>
<circle cx="209.521" cy="317.521" r="29.5208" fill="#130B76"/>
<circle cx="335" cy="287" r="287" fill="white" fill-opacity="0.15"/>
<rect x="144" y="492" width="378" height="89" rx="44.5" fill="#6E6E6E"/>
</svg>
