<svg width="78" height="74" viewBox="0 0 78 74" fill="none" xmlns="http://www.w3.org/2000/svg">
<path fill-rule="evenodd" clip-rule="evenodd" d="M68.3376 50.3803C74.1178 46.9964 78 40.7216 78 33.54C78 22.7704 69.2696 14.04 58.5 14.04C57.9826 14.04 57.4699 14.0602 56.9626 14.0997C54.6207 5.95705 47.116 0 38.22 0C29.3458 0 21.8561 5.92794 19.4947 14.04C8.7276 14.0428 0 22.7722 0 33.54C0 40.7215 3.88218 46.9963 9.66239 50.3803C9.46367 51.4968 9.35998 52.6463 9.35998 53.82C9.35998 64.5895 18.0904 73.32 28.86 73.32C32.574 73.32 36.0454 72.2817 39 70.4795C41.9545 72.2817 45.426 73.32 49.14 73.32C59.9095 73.32 68.64 64.5895 68.64 53.82C68.64 52.6463 68.5363 51.4969 68.3376 50.3803Z" fill="#FF4686" fill-opacity="0.95"/>
<circle cx="39" cy="37" r="11" fill="#FFCC00"/>
</svg>
