<svg width="90" height="90" viewBox="0 0 90 90" fill="none" xmlns="http://www.w3.org/2000/svg">
<path d="M44.2808 4C83.0572 4 77.1823 70.5806 77.1823 70.5806H13.7298C13.7298 70.5806 5.50449 4 44.2808 4Z" fill="url(#paint0_linear_5784_9)" fill-opacity="0.5"/>
<ellipse cx="45.456" cy="80.2903" rx="31.7262" ry="9.70968" fill="#999999"/>
<rect x="13.7298" y="70.5807" width="63.4524" height="10.172" fill="#999999"/>
<ellipse cx="45.456" cy="70.7724" rx="31.7262" ry="9.43902" fill="#D9D9D9"/>
<ellipse cx="45.4561" cy="70.0732" rx="16.4506" ry="5.2439" fill="#8A92FD"/>
<ellipse cx="45.456" cy="70.0732" rx="8.22532" ry="3.14634" fill="#424FFE"/>
<path d="M25.4803 12.3226C36.6432 18.3333 51.9188 18.3333 63.0817 12.3226C53.0938 1.68814 34.2931 1.68814 25.4803 12.3226Z" fill="#999999" stroke="#999999"/>
<path d="M39.5808 21.8935C39.5808 21.8935 42.389 22.8183 44.281 22.8183C46.173 22.8183 48.9812 21.8935 48.9812 21.8935L50.1562 16.9C50.1562 16.9 47.8061 17.2699 44.281 17.2699C40.7559 17.2699 38.4058 16.9 38.4058 16.9L38.9933 19.3505L39.5808 21.8935Z" fill="#4250F7"/>
<defs>
<linearGradient id="paint0_linear_5784_9" x1="45.2246" y1="4" x2="45.2246" y2="70.5806" gradientUnits="userSpaceOnUse">
<stop stop-color="#2CD0FF"/>
<stop offset="1" stop-color="white"/>
</linearGradient>
</defs>
</svg>
