<svg width="866" height="866" viewBox="0 0 866 866" fill="none" xmlns="http://www.w3.org/2000/svg">
<path d="M394.924 468.805C414.839 446.119 450.161 446.119 470.076 468.805L649.338 673.015C677.703 705.327 654.758 756 611.762 756H253.238C210.242 756 187.297 705.327 215.662 673.014L394.924 468.805Z" fill="#224DCB"/>
<path d="M620.383 328C633.974 328 647.008 333.399 656.618 343.009C666.229 352.619 671.628 365.654 671.628 379.245C671.628 392.836 666.229 405.87 656.618 415.48C647.008 425.09 633.974 430.489 620.383 430.489L620.383 379.245L620.383 328Z" fill="#F3A7BF"/>
<path d="M620.383 343.879C629.763 343.879 638.758 347.605 645.39 354.237C652.023 360.87 655.749 369.865 655.749 379.245C655.749 388.624 652.023 397.62 645.39 404.252C638.758 410.885 629.763 414.611 620.383 414.611L620.383 379.245L620.383 343.879Z" fill="#CB7878"/>
<path d="M244.245 430C230.654 430 217.619 424.601 208.009 414.991C198.399 405.381 193 392.346 193 378.755C193 365.164 198.399 352.13 208.009 342.52C217.619 332.91 230.654 327.511 244.245 327.511L244.245 378.755L244.245 430Z" fill="#F3A7BF"/>
<path d="M244.245 414.121C234.865 414.121 225.87 410.395 219.237 403.763C212.605 397.13 208.879 388.135 208.879 378.755C208.879 369.376 212.605 360.38 219.237 353.748C225.87 347.115 234.865 343.389 244.245 343.389L244.245 378.755L244.245 414.121Z" fill="#CB7878"/>
<circle cx="432.5" cy="349.5" r="204.5" fill="#F3A7BF"/>
<circle cx="349.521" cy="379.521" r="29.5208" fill="#130B76"/>
<circle cx="515.19" cy="379.521" r="29.5208" fill="#130B76"/>
<path d="M366.517 457.619C387.519 480.678 443.359 512.96 498.699 457.619" stroke="#130B76" stroke-width="25" stroke-linecap="round"/>
<path fill-rule="evenodd" clip-rule="evenodd" d="M587.994 318.302C571.095 328.417 551.326 334.231 530.198 334.231C482.193 334.231 441.199 304.215 424.96 261.927C408.924 304.62 367.724 335 319.429 335C304.037 335 289.366 331.914 276 326.327C284.008 246.954 351.022 185 432.506 185C511.223 185 576.435 242.817 587.994 318.302Z" fill="#C57F95" fill-opacity="0.6"/>
<path fill-rule="evenodd" clip-rule="evenodd" d="M634.592 318.292C612.623 331.442 586.923 339 559.458 339C497.052 339 443.759 299.979 422.648 245.005C401.801 300.506 348.242 340 285.458 340C265.448 340 246.375 335.988 229 328.726C239.41 225.541 326.528 145 432.458 145C534.789 145 619.566 220.163 634.592 318.292Z" fill="#080049"/>
<path d="M520 187C530.07 190.437 552.262 205.569 568 230" stroke="#130B76" stroke-width="15" stroke-linecap="round"/>
<circle cx="585" cy="250" r="7" fill="#130B76"/>
<circle cx="432" cy="328" r="287" fill="white" fill-opacity="0.15"/>
<rect x="242" y="533" width="378" height="89" rx="44.5" fill="#6E6E6E"/>
<circle cx="400" cy="578" r="12" fill="#C02D2D"/>
<circle cx="432" cy="578" r="12" fill="#FCB40C"/>
<circle cx="464" cy="578" r="12" fill="#559303"/>
</svg>
