<svg width="90" height="93" viewBox="0 0 90 93" fill="none" xmlns="http://www.w3.org/2000/svg">
<path d="M34.3719 47.5899C36.1931 49.5324 32.5513 90 26.2177 90H63.2693C56.144 90 52.8188 49.3705 57.2524 42.7338L34.3719 47.5899Z" fill="#6F3109" stroke="#572200" stroke-width="3"/>
<mask id="path-2-inside-1_5784_18" fill="white">
<path fill-rule="evenodd" clip-rule="evenodd" d="M77.3261 22.6515C77.3261 24.3915 77.1152 26.0857 76.7159 27.7131C81.6987 30.8193 85 36.2471 85 42.4236C85 52.0711 76.9453 59.8921 67.0093 59.8921C60.6962 59.8921 55.1426 56.7347 51.932 51.9576C50.6013 52.373 49.1806 52.5975 47.7051 52.5975C43.9331 52.5975 40.519 51.13 38.0513 48.7585C34.548 51.8684 29.9826 53.7493 24.9896 53.7493C13.9497 53.7493 5 44.5533 5 33.2094C5 21.8655 13.9497 12.6695 24.9896 12.6695C26.9688 12.6695 28.8807 12.965 30.6859 13.5155C34.462 5.5557 43.0211 0 52.9751 0C66.4238 0 77.3261 10.1414 77.3261 22.6515Z"/>
</mask>
<path fill-rule="evenodd" clip-rule="evenodd" d="M77.3261 22.6515C77.3261 24.3915 77.1152 26.0857 76.7159 27.7131C81.6987 30.8193 85 36.2471 85 42.4236C85 52.0711 76.9453 59.8921 67.0093 59.8921C60.6962 59.8921 55.1426 56.7347 51.932 51.9576C50.6013 52.373 49.1806 52.5975 47.7051 52.5975C43.9331 52.5975 40.519 51.13 38.0513 48.7585C34.548 51.8684 29.9826 53.7493 24.9896 53.7493C13.9497 53.7493 5 44.5533 5 33.2094C5 21.8655 13.9497 12.6695 24.9896 12.6695C26.9688 12.6695 28.8807 12.965 30.6859 13.5155C34.462 5.5557 43.0211 0 52.9751 0C66.4238 0 77.3261 10.1414 77.3261 22.6515Z" fill="#2FA10F"/>
<path d="M76.7159 27.7131L73.8023 26.9982L73.2843 29.1091L75.1289 30.259L76.7159 27.7131ZM51.932 51.9576L54.4219 50.2842L53.1739 48.4272L51.0381 49.0939L51.932 51.9576ZM38.0513 48.7585L40.13 46.5954L38.132 44.6753L36.0597 46.5149L38.0513 48.7585ZM30.6859 13.5155L29.8109 16.385L32.2869 17.14L33.3964 14.8013L30.6859 13.5155ZM79.6295 28.4281C80.0856 26.5692 80.3261 24.635 80.3261 22.6515H74.3261C74.3261 24.148 74.1449 25.6022 73.8023 26.9982L79.6295 28.4281ZM88 42.4236C88 35.1421 84.104 28.7836 78.3029 25.1673L75.1289 30.259C79.2933 32.8551 82 37.3521 82 42.4236H88ZM67.0093 62.8921C78.5182 62.8921 88 53.8107 88 42.4236H82C82 50.3316 75.3723 56.8921 67.0093 56.8921V62.8921ZM49.4421 53.6311C53.2005 59.2231 59.6801 62.8921 67.0093 62.8921V56.8921C61.7123 56.8921 57.0848 54.2463 54.4219 50.2842L49.4421 53.6311ZM51.0381 49.0939C49.9944 49.4197 48.875 49.5975 47.7051 49.5975V55.5975C49.4862 55.5975 51.2082 55.3263 52.8259 54.8214L51.0381 49.0939ZM47.7051 49.5975C44.7209 49.5975 42.0482 48.4388 40.13 46.5954L35.9725 50.9215C38.9898 53.8211 43.1453 55.5975 47.7051 55.5975V49.5975ZM24.9896 56.7493C30.7536 56.7493 36.0189 54.5742 40.0429 51.002L36.0597 46.5149C33.0771 49.1626 29.2116 50.7493 24.9896 50.7493V56.7493ZM2 33.2094C2 46.1328 12.2165 56.7493 24.9896 56.7493V50.7493C15.6828 50.7493 8 42.9737 8 33.2094H2ZM24.9896 9.66949C12.2165 9.66949 2 20.286 2 33.2094H8C8 23.4451 15.6828 15.6695 24.9896 15.6695V9.66949ZM31.5609 10.6459C29.4757 10.0101 27.2691 9.66949 24.9896 9.66949V15.6695C26.6684 15.6695 28.2856 15.9199 29.8109 16.385L31.5609 10.6459ZM52.9751 -3C41.9111 -3 32.2687 3.17969 27.9755 12.2297L33.3964 14.8013C36.6553 7.93172 44.1311 3 52.9751 3V-3ZM80.3261 22.6515C80.3261 8.28385 67.8726 -3 52.9751 -3V3C64.9751 3 74.3261 11.999 74.3261 22.6515H80.3261Z" fill="#1F7D05" mask="url(#path-2-inside-1_5784_18)"/>
</svg>
