<svg width="1900" height="900" viewBox="0 0 1900 900" fill="none" xmlns="http://www.w3.org/2000/svg">
<g clip-path="url(#clip0_1730_2)">
<rect width="1900" height="900" fill="url(#paint0_linear_1730_2)"/>
<path fill-rule="evenodd" clip-rule="evenodd" d="M1659.91 692.056C1647.03 689.778 1635.3 684.092 1625.64 675.944C1614.61 703.265 1588.24 722.502 1557.45 722.502C1536.5 722.502 1517.59 713.594 1504.17 699.291C1490.2 720.568 1466.41 734.578 1439.4 734.578C1414.14 734.578 1391.68 722.32 1377.45 703.323C1364.02 727.155 1338.79 743.205 1309.88 743.205C1266.87 743.205 1232 707.673 1232 663.843C1232 644.876 1238.53 627.463 1249.42 613.811C1238.53 600.159 1232 582.746 1232 563.779C1232 519.948 1266.87 484.417 1309.88 484.417C1313.52 484.417 1317.1 484.671 1320.6 485.163C1330.66 468.352 1347.02 455.884 1366.33 451.165C1366.31 450.478 1366.3 449.789 1366.3 449.098C1366.3 407.622 1399.3 374 1440 374C1464.16 374 1485.6 385.845 1499.04 404.146C1517.19 385.528 1542.33 374 1570.12 374C1602.61 374 1631.49 389.763 1649.79 414.194C1654.75 413.228 1659.88 412.722 1665.12 412.722C1693.8 412.722 1719.02 427.885 1733.45 450.776C1733.55 450.775 1733.64 450.775 1733.73 450.774C1733.81 450.774 1733.9 450.774 1733.99 450.774C1768.46 450.774 1797.7 473.594 1807.95 505.218C1809.25 505.153 1810.55 505.12 1811.86 505.12C1848.47 505.12 1879.18 530.855 1887.51 565.539C1922.65 573.209 1949 605.039 1949 643.139C1949 686.97 1914.13 722.501 1871.12 722.501C1841.53 722.501 1815.79 705.683 1802.61 680.914C1792.13 712.132 1763.09 734.578 1728.91 734.578C1698.94 734.578 1672.93 717.335 1659.91 692.056ZM1372.39 611.122C1371.72 612.034 1371.04 612.93 1370.34 613.811C1370.84 614.445 1371.34 615.086 1371.82 615.736C1372.12 615.209 1372.42 614.686 1372.73 614.167C1372.6 613.158 1372.48 612.143 1372.39 611.122Z" fill="#63BA35"/>
<path fill-rule="evenodd" clip-rule="evenodd" d="M1304.22 701.324C1315.29 710.491 1329.5 716 1345 716C1369.65 716 1391.04 702.068 1401.73 681.65C1433.91 678.286 1459 651.073 1459 618C1459 587.306 1437.39 561.658 1408.56 555.439C1408.85 552.833 1409 550.184 1409 547.5C1409 508.564 1377.44 477 1338.5 477C1333.95 477 1329.5 477.431 1325.19 478.254C1309.3 457.433 1284.22 444 1256 444C1231.87 444 1210.03 453.824 1194.27 469.691C1182.6 454.094 1163.98 444 1143 444C1107.65 444 1079 472.654 1079 508C1079 508.589 1079.01 509.176 1079.02 509.762C1050.9 516.504 1030 541.811 1030 572C1030 604.005 1053.49 630.523 1084.17 635.25C1084.06 636.819 1084 638.402 1084 640C1084 675.346 1112.65 704 1148 704C1160.98 704 1173.06 700.136 1183.15 693.495C1190.42 720.847 1215.36 741 1245 741C1271.74 741 1294.64 724.607 1304.22 701.324Z" fill="#8CBE40"/>
<path fill-rule="evenodd" clip-rule="evenodd" d="M1173.72 698.937C1182.75 706.416 1194.35 710.912 1206.99 710.912C1227.1 710.912 1244.56 699.545 1253.28 682.887C1279.53 680.141 1300 657.94 1300 630.959C1300 605.917 1282.37 584.993 1258.85 579.918C1259.08 577.792 1259.21 575.631 1259.21 573.441C1259.21 541.675 1233.46 515.923 1201.69 515.923C1197.98 515.923 1194.35 516.275 1190.83 516.947C1177.86 499.96 1157.4 489 1134.38 489C1114.69 489 1096.88 497.015 1084.02 509.961C1074.5 497.236 1059.31 489 1042.19 489C1013.35 489 989.975 512.377 989.975 541.214C989.975 541.695 989.982 542.175 989.995 542.653C967.052 548.154 950 568.8 950 593.429C950 619.54 969.166 641.175 994.197 645.032C994.103 646.312 994.056 647.604 994.056 648.907C994.056 677.744 1017.43 701.122 1046.27 701.122C1056.86 701.122 1066.71 697.969 1074.94 692.552C1080.88 714.866 1101.22 731.308 1125.41 731.308C1147.22 731.308 1165.91 717.933 1173.72 698.937Z" fill="#08876A"/>
<path fill-rule="evenodd" clip-rule="evenodd" d="M1320.05 695.74C1328.77 702.962 1339.97 707.303 1352.18 707.303C1371.6 707.303 1388.46 696.326 1396.88 680.24C1422.24 677.589 1442 656.148 1442 630.091C1442 605.908 1424.98 585.7 1402.26 580.8C1402.49 578.747 1402.61 576.66 1402.61 574.545C1402.61 543.869 1377.74 519 1347.06 519C1343.48 519 1339.97 519.339 1336.58 519.988C1324.05 503.584 1304.29 493 1282.06 493C1263.05 493 1245.84 500.74 1233.43 513.241C1224.23 500.953 1209.56 493 1193.03 493C1165.18 493 1142.61 515.576 1142.61 543.424C1142.61 543.888 1142.61 544.351 1142.62 544.812C1120.47 550.124 1104 570.063 1104 593.848C1104 619.064 1122.51 639.957 1146.68 643.682C1146.59 644.918 1146.55 646.166 1146.55 647.424C1146.55 675.273 1169.12 697.848 1196.97 697.848C1207.2 697.848 1216.71 694.804 1224.66 689.572C1230.39 711.122 1250.04 727 1273.39 727C1294.46 727 1312.51 714.084 1320.05 695.74Z" fill="#1EA471"/>
<path fill-rule="evenodd" clip-rule="evenodd" d="M1605.66 577.198C1604.67 574.622 1601.77 573.341 1599.2 574.336C1596.62 575.331 1595.34 578.226 1596.34 580.802C1599 587.696 1601.94 599.094 1602.03 610.538C1602.07 615.874 1601.49 621 1600.11 625.621C1599.64 619.391 1598.03 613.588 1595.86 608.433C1591.62 598.39 1585.16 590.539 1580.31 586.255C1578.24 584.425 1575.08 584.619 1573.26 586.687C1571.43 588.755 1571.62 591.915 1573.69 593.745C1577.51 597.127 1583.04 603.776 1586.64 612.317C1590.21 620.786 1591.78 630.843 1588.26 641.419C1587.38 644.038 1588.8 646.87 1591.42 647.743C1592.28 648.031 1593.17 648.07 1594 647.899C1594.49 647.999 1595 648.025 1595.5 647.975C1596.61 648.087 1597.77 647.829 1598.77 647.16C1626.81 628.472 1633.38 600.988 1633 588.844C1632.91 586.084 1630.6 583.916 1627.84 584.002C1625.08 584.089 1622.92 586.396 1623 589.156C1623.2 595.465 1620.76 608.749 1611.2 621.8C1611.82 618.008 1612.05 614.179 1612.02 610.462C1611.93 597.572 1608.67 584.97 1605.66 577.198Z" fill="#1EA471"/>
<ellipse cx="950" cy="784" rx="1110" ry="182" fill="#129142"/>
<path fill-rule="evenodd" clip-rule="evenodd" d="M1754.46 719.965C1754.46 719.883 1754.47 719.801 1754.47 719.719C1754.47 712.965 1735.6 707.489 1712.33 707.489C1689.06 707.489 1670.19 712.965 1670.19 719.719C1670.19 725.578 1684.38 730.474 1703.33 731.67C1702.63 732.881 1702.25 734.144 1702.25 735.443C1702.25 744.42 1720.14 751.698 1742.21 751.698C1764.28 751.698 1782.17 744.42 1782.17 735.443C1782.17 728.203 1770.54 722.068 1754.46 719.965Z" fill="#129142"/>
<path fill-rule="evenodd" clip-rule="evenodd" d="M934.901 740.031C908.067 735.498 890 726.997 890 717.257C890 702.756 930.05 691 979.455 691C1011.3 691 1039.26 695.885 1055.11 703.242C1071.55 701.765 1088.99 700.971 1107.06 700.971C1205.41 700.971 1285.13 724.483 1285.13 753.486C1285.13 782.488 1205.41 806 1107.06 806C1008.72 806 929.003 782.488 929.003 753.486C929.003 748.835 931.053 744.325 934.901 740.031Z" fill="#157945"/>
<ellipse cx="1159.64" cy="712.272" rx="72.0726" ry="21.2716" fill="#58BA2F"/>
<ellipse cx="1009.13" cy="742.517" rx="36.8842" ry="10.9682" fill="#129142"/>
<path fill-rule="evenodd" clip-rule="evenodd" d="M1699.45 693.214C1702.4 690.811 1703.96 688.306 1703.96 685.731C1703.96 667.654 1626.96 653 1531.98 653C1437 653 1360 667.654 1360 685.731C1360 701.331 1417.34 714.382 1494.1 717.666C1490.84 721.43 1489.11 725.399 1489.11 729.5C1489.11 753.673 1549.5 773.269 1623.99 773.269C1698.49 773.269 1758.88 753.673 1758.88 729.5C1758.88 714.397 1735.31 701.081 1699.45 693.214Z" fill="#31A238"/>
<path fill-rule="evenodd" clip-rule="evenodd" d="M1752.43 770.478C1770.29 767.597 1782 762.762 1782 757.284C1782 748.456 1751.59 741.299 1714.07 741.299C1683.29 741.299 1657.28 746.119 1648.95 752.728C1647.86 752.721 1646.76 752.717 1645.67 752.717C1583.14 752.717 1532.46 764.645 1532.46 779.359C1532.46 794.072 1583.14 806 1645.67 806C1708.19 806 1758.88 794.072 1758.88 779.359C1758.88 776.245 1756.61 773.255 1752.43 770.478Z" fill="#58BA2F"/>
<path fill-rule="evenodd" clip-rule="evenodd" d="M351.185 736.696C511.284 735.754 639 717.387 639 694.867C639 671.745 504.354 653 338.259 653C172.164 653 37.5174 671.745 37.5174 694.867C37.5174 701.929 50.0783 708.583 72.2596 714.42C38.3206 721.205 17 731.011 17 741.918C17 762.398 92.1796 779 184.918 779C277.657 779 352.837 762.398 352.837 741.918C352.837 740.145 352.274 738.402 351.185 736.696Z" fill="#157945"/>
<path fill-rule="evenodd" clip-rule="evenodd" d="M1084.14 100.729C1084.55 93.5601 1079.06 87.4229 1071.89 87.0208C1064.73 86.6186 1058.59 92.1038 1058.19 99.2722C1055.47 147.628 1053.73 220.95 1062.71 282.503C1066.41 307.874 1072.04 332.058 1080.63 351.89L1080.63 351.951V399.192C1080.63 406.371 1086.45 412.192 1093.63 412.192C1100.81 412.192 1106.63 406.371 1106.63 399.192V388.973C1106.95 389.238 1107.27 389.499 1107.6 389.756L1107.6 452.916C1107.6 460.096 1113.42 465.916 1120.6 465.916C1127.78 465.916 1133.6 460.096 1133.6 452.916V401.304C1136.52 401.763 1139.55 402.002 1142.69 402.002C1160.89 402.002 1175.65 395.818 1187.4 385.571C1188 392.188 1193.57 397.371 1200.34 397.371C1207.52 397.371 1213.34 391.551 1213.34 384.371V346.653C1220.97 327.681 1225.56 305.345 1228.32 282.16C1234.86 227.107 1231.46 162.428 1228.98 115.308V115.308L1228.98 115.302L1228.97 115.258C1228.68 109.698 1228.4 104.383 1228.15 99.3577C1227.8 92.1867 1221.7 86.6613 1214.53 87.0163C1207.36 87.3712 1201.83 93.4721 1202.19 100.643C1202.44 105.762 1202.72 111.126 1203.01 116.695L1203.01 116.695L1203.01 116.696V116.696C1205.49 164.123 1208.76 226.43 1202.5 279.093C1199.86 301.339 1195.6 321.009 1189.31 336.734C1188.58 337.903 1188.03 339.197 1187.7 340.576C1186.09 344.231 1184.36 347.647 1182.51 350.805C1172.76 367.391 1160.17 376.002 1142.69 376.002C1129.71 376.002 1118.7 368.433 1109.15 351.114C1099.48 333.583 1092.75 308.312 1088.44 278.75C1079.85 219.886 1081.45 148.707 1084.14 100.729Z" fill="#0F2B41"/>
<path d="M1315 69C1315 129.531 1320.65 209.987 1387.43 208.979C1454.21 207.97 1459.29 121.965 1459.29 69" stroke="#006C6F" stroke-width="20" stroke-linecap="round"/>
<path fill-rule="evenodd" clip-rule="evenodd" d="M1398.01 197.665C1394.41 198.462 1390.52 198.916 1386.28 198.98C1371.78 199.199 1361.3 195.055 1353.38 188.393C1345.27 181.566 1339.12 171.475 1334.6 158.728C1325.48 132.974 1324 99.3135 1324 68.9998C1324 63.4769 1319.52 58.9999 1314 59C1308.48 59.0001 1304 63.4774 1304 69.0002C1304 99.2178 1305.35 136.051 1315.75 165.406C1320.99 180.213 1328.78 193.83 1340.51 203.697C1346.94 209.107 1354.34 213.209 1362.76 215.796V302.929C1362.76 308.451 1367.24 312.929 1372.76 312.929C1374.55 312.929 1376.23 312.459 1377.68 311.635V348.957C1377.68 354.48 1382.16 358.957 1387.68 358.957C1393.2 358.957 1397.68 354.48 1397.68 348.957V218.062C1397.79 218.046 1397.9 218.029 1398.01 218.011V197.665Z" fill="#004A59"/>
<path d="M1378.42 210.871C1397.54 208.979 1420.39 205.827 1432.98 186.911" stroke="#004A59" stroke-width="20" stroke-linecap="round" stroke-linejoin="round"/>
<g filter="url(#filter0_f_1730_2)">
<path fill-rule="evenodd" clip-rule="evenodd" d="M1931.46 75.0002C1935.68 68.7286 1938.69 61.9714 1940.36 54.753C1956.16 -13.5465 1835.08 -48.2715 1683.9 -83.2519C1532.72 -118.232 1408.69 -140.222 1392.89 -71.9223C1390.51 -61.6463 1390.97 -51.0211 1393.99 -40.2653C1377.9 -30.3023 1361 -13.8015 1343.86 11.5504C1359.09 25.613 1382.83 41.1244 1408.29 46.2992C1393.55 71.756 1389.62 109.514 1412.62 163.418C1434.51 154.403 1463.55 135.939 1480.67 109.544C1483.25 130.705 1492.86 155.097 1512.97 182.679C1528.26 171.748 1546.62 154.211 1559.31 132.955C1564.9 143.415 1572.23 154.383 1581.57 165.837C1596.64 153.819 1614.57 134.751 1626.2 112.232C1628.28 112.756 1630.37 113.27 1632.47 113.776C1636.15 128.849 1642.81 145.5 1653.23 163.814C1664.22 157.686 1676.92 148.715 1688.55 137.468C1688.96 156.332 1693.8 178.493 1704.85 204.378C1729.73 194.127 1763.87 171.66 1779.21 139.208C1787.13 157.543 1801.78 176.87 1825.87 196.424C1837.66 182.606 1850.77 162.346 1858.5 139.998C1869.9 163.618 1894.8 184.874 1942.15 196.259C1952.98 163.239 1959.63 107.672 1931.46 75.0002Z" fill="#09343B"/>
</g>
<path fill-rule="evenodd" clip-rule="evenodd" d="M1623.58 -47.1095C1624.67 -51.2008 1625.23 -55.3512 1625.23 -59.5505C1625.23 -127.651 1478.07 -134 1296.55 -134C1115.02 -134 967.861 -127.651 967.861 -59.5505C967.861 -51.5828 969.876 -43.7916 973.724 -36.2447C959.39 -22.0063 945.823 -1.65019 934 26.6047C955.067 37.6422 986.215 48.1349 1016.6 47.3843C1006.51 77.6184 1011.98 118.118 1052.42 169C1074.98 154.255 1103.21 127.88 1115.76 96.0884C1124.29 117.625 1141.67 140.842 1171.86 164.856C1186.4 149.701 1202.7 126.883 1211.56 101.544C1220.7 111.145 1231.94 120.857 1245.61 130.591C1259.61 114.354 1275.01 90.0436 1282.34 63.6429C1284.85 63.683 1287.37 63.7125 1289.9 63.7314C1298.06 78.6262 1310.04 94.4516 1326.74 111.107C1337.66 102.024 1349.77 89.5517 1360.06 74.952C1365.5 94.6099 1376.86 116.649 1396.27 141.082C1421.93 124.315 1454.92 92.5113 1463.84 54.8039C1477.7 72.0888 1499.5 88.7799 1532.11 103.423C1541.9 86.0956 1551.51 61.7001 1554.42 36.4223C1573.64 58.397 1607.63 74.6216 1664.59 75.071C1668.13 38.8428 1661.51 -18.8125 1623.58 -47.1095Z" fill="#0C0727"/>
</g>
<defs>
<filter id="filter0_f_1730_2" x="1335.86" y="-124.419" width="623.609" height="336.796" filterUnits="userSpaceOnUse" color-interpolation-filters="sRGB">
<feFlood flood-opacity="0" result="BackgroundImageFix"/>
<feBlend mode="normal" in="SourceGraphic" in2="BackgroundImageFix" result="shape"/>
<feGaussianBlur stdDeviation="4" result="effect1_foregroundBlur_1730_2"/>
</filter>
<linearGradient id="paint0_linear_1730_2" x1="950" y1="-459" x2="950" y2="900" gradientUnits="userSpaceOnUse">
<stop stop-color="#016D6D"/>
<stop offset="1" stop-color="#85F87D"/>
</linearGradient>
<clipPath id="clip0_1730_2">
<rect width="1900" height="900" fill="white"/>
</clipPath>
</defs>
</svg>
