<svg width="39" height="29" viewBox="0 0 39 29" fill="none" xmlns="http://www.w3.org/2000/svg">
<path d="M15.841 3.90838C16.7197 3.01428 16.7197 1.56467 15.841 0.670571C14.9623 -0.223524 13.5377 -0.223524 12.659 0.670571L0.65901 12.8811C0.21967 13.3281 0 13.9141 0 14.5C0 14.8104 0.0607173 15.1064 0.170727 15.3764C0.280527 15.6464 0.443288 15.8994 0.65901 16.1189L12.659 28.3294C13.5377 29.2235 14.9623 29.2235 15.841 28.3294C16.7197 27.4353 16.7197 25.9857 15.841 25.0916L7.68198 16.7895H36.75C37.9926 16.7895 39 15.7644 39 14.5C39 13.2356 37.9926 12.2105 36.75 12.2105H7.68198L15.841 3.90838Z" fill="white"/>
</svg>
