<svg width="146" height="146" viewBox="0 0 195 176" fill="none" xmlns="http://www.w3.org/2000/svg">
<g id="Group 110" filter="url(#filter0_d_548_31)">
<g id="Group 100">
<g id="Group 37">
<circle id="Ellipse 41" cx="157.641" cy="77.9952" r="37.3588" fill="#807F83" fill-opacity="0.8"/>
</g>
</g>
<g id="Group 99">
<g id="Group 37_2">
<ellipse id="Ellipse 41_2" cx="157.072" cy="78.6052" rx="35.2982" ry="35.2982" fill="#979797" fill-opacity="0.6"/>
</g>
</g>
<g id="Group 101">
<g id="Group 88">
<g id="Group 37_3">
<ellipse id="Ellipse 41_3" cx="157.071" cy="78.6442" rx="33.2493" ry="33.2493" fill="#0075FF"/>
</g>
</g>
<path id="Intersect" fill-rule="evenodd" clip-rule="evenodd" d="M147.937 46.665C148.345 47.4193 148.576 48.2827 148.576 49.2001C148.576 52.1509 146.184 54.543 143.233 54.543H134.166C138.001 50.8967 142.706 48.1564 147.937 46.665Z" fill="#0DAE30"/>
<path id="Intersect_2" fill-rule="evenodd" clip-rule="evenodd" d="M184.994 60.5869C184.256 61.2051 183.305 61.5773 182.267 61.5773H167.2C164.854 61.5773 162.952 59.6757 162.952 57.3299C162.952 54.984 164.854 53.0824 167.2 53.0824H178.335C180.914 55.2301 183.163 57.7607 184.994 60.5869Z" fill="#0DAE30"/>
<g id="Group 98">
<rect id="Rectangle 33" x="152.135" y="71.7252" width="18.4658" height="5.26925" rx="2.63462" fill="#0DAE30"/>
<rect id="Rectangle 34" x="149.998" y="75.7196" width="18.4658" height="5.26925" rx="2.63462" fill="#0DAE30"/>
</g>
<path id="Intersect_3" fill-rule="evenodd" clip-rule="evenodd" d="M181.669 101.016C175.588 107.699 166.819 111.894 157.071 111.894C156.176 111.894 155.289 111.858 154.412 111.789C153.829 110.745 153.497 109.542 153.497 108.261C153.497 104.259 156.741 101.016 160.742 101.016H181.669Z" fill="#0DAE30"/>
<path id="Intersect_4" fill-rule="evenodd" clip-rule="evenodd" d="M187.933 91.0387C186.675 94.1663 184.957 97.0587 182.86 99.6315H164.874C162.348 99.6315 160.3 97.5836 160.3 95.0573C160.3 92.5311 162.348 90.4832 164.874 90.4832H185.746C186.538 90.4832 187.283 90.6845 187.933 91.0387Z" fill="#0DAE30"/>
<path id="Intersect_5" fill-rule="evenodd" clip-rule="evenodd" d="M125.805 89.9835C125.056 87.9186 124.506 85.7583 124.177 83.5259H135.969C137.752 83.5259 139.197 84.9715 139.197 86.7547C139.197 88.5379 137.752 89.9835 135.969 89.9835H125.805Z" fill="#0DAE30"/>
<path id="Intersect_6" fill-rule="evenodd" clip-rule="evenodd" d="M132.384 100.918C129.944 98.2151 127.942 95.1097 126.488 91.7133H131.432C134.001 91.7133 136.084 93.7956 136.084 96.3643C136.084 98.6068 134.496 100.479 132.384 100.918Z" fill="#0DAE30"/>
<rect id="Rectangle 27" x="134.162" y="81.4885" width="18.1814" height="8.49491" rx="4.24745" fill="white" fill-opacity="0.5"/>
<rect id="Rectangle 28" x="137.389" y="82.3604" width="14.393" height="4.8763" rx="2.43815" fill="white" fill-opacity="0.8"/>
<rect id="Rectangle 29" x="172.427" y="84.6018" width="13.9604" height="3.06735" rx="1.53368" fill="white" fill-opacity="0.8"/>
<path id="Intersect_7" fill-rule="evenodd" clip-rule="evenodd" d="M163.324 58.6082C161.054 58.6082 159.214 60.448 159.214 62.7176C159.214 64.9872 161.054 66.8271 163.324 66.8271H174.247C176.517 66.8271 178.357 64.9872 178.357 62.7176C178.357 60.448 176.517 58.6082 174.247 58.6082H163.324Z" fill="white" fill-opacity="0.5"/>
<path id="Intersect_8" fill-rule="evenodd" clip-rule="evenodd" d="M165.299 58.6082C163.437 58.6082 161.928 60.1175 161.928 61.9793C161.928 63.8411 163.437 65.3505 165.299 65.3505H174.935C176.797 65.3505 178.307 63.8411 178.307 61.9793C178.307 60.1175 176.797 58.6082 174.935 58.6082H165.299Z" fill="white" fill-opacity="0.8"/>
<path id="Intersect_9" fill-rule="evenodd" clip-rule="evenodd" d="M141.074 53.0632C139.212 53.0632 137.703 54.5725 137.703 56.4344C137.703 58.2962 139.212 59.8055 141.074 59.8055H150.711C152.573 59.8055 154.082 58.2962 154.082 56.4344C154.082 54.5725 152.573 53.0632 150.711 53.0632H141.074Z" fill="white" fill-opacity="0.8"/>
<path id="Intersect_10" fill-rule="evenodd" clip-rule="evenodd" d="M134.162 54.8257C136.178 52.8023 138.454 51.0373 140.935 49.5847H147.87C150.015 49.5847 151.753 51.3229 151.753 53.467C151.753 55.6111 150.015 57.3493 147.87 57.3493H137.8C136.133 57.3493 134.712 56.2997 134.162 54.8257Z" fill="white" fill-opacity="0.5"/>
<path id="Union" fill-rule="evenodd" clip-rule="evenodd" d="M172.014 84.6019C170.793 84.6019 169.803 85.5915 169.803 86.8121C169.803 87.7859 170.433 88.6126 171.307 88.9072H171.075C171.97 88.9093 172.696 89.6358 172.696 90.5317C172.696 91.3412 172.104 92.0123 171.329 92.1359H163.288C162.322 92.1359 161.539 92.9189 161.539 93.8849C161.539 94.8508 162.322 95.6338 163.288 95.6338H178.317C179.283 95.6338 180.066 94.8508 180.066 93.8849C180.066 93.01 179.424 92.2851 178.585 92.1563H178.792C177.894 92.1563 177.167 91.4289 177.167 90.5317C177.167 89.8472 177.59 89.2616 178.19 89.0224H184.583C185.804 89.0224 186.793 88.0328 186.793 86.8121C186.793 85.5915 185.804 84.6019 184.583 84.6019H172.014ZM163.596 99.5159H171.76C170.698 99.5038 169.842 98.6395 169.842 97.5751C169.842 96.5031 170.711 95.6341 171.783 95.6341H172.415V95.6339H163.596C164.668 95.6339 165.537 96.5029 165.537 97.5749C165.537 98.6469 164.668 99.5159 163.596 99.5159ZM158.714 99.5162C157.557 99.5162 156.619 100.454 156.619 101.611C156.619 102.768 157.557 103.706 158.714 103.706H171.398C172.555 103.706 173.493 102.768 173.493 101.611C173.493 100.454 172.555 99.5162 171.398 99.5162H158.714Z" fill="white" fill-opacity="0.5"/>
</g>
</g>
<defs>
<filter id="filter0_d_548_31" x="0.282715" y="0.636475" width="194.717" height="174.718" filterUnits="userSpaceOnUse" color-interpolation-filters="sRGB">
<feFlood flood-opacity="0" result="BackgroundImageFix"/>
<feColorMatrix in="SourceAlpha" type="matrix" values="0 0 0 0 0 0 0 0 0 0 0 0 0 0 0 0 0 0 127 0" result="hardAlpha"/>
<feOffset dx="-70" dy="10"/>
<feGaussianBlur stdDeviation="25"/>
<feComposite in2="hardAlpha" operator="out"/>
<feColorMatrix type="matrix" values="0 0 0 0 0 0 0 0 0 0 0 0 0 0 0 0 0 0 0.25 0"/>
<feBlend mode="normal" in2="BackgroundImageFix" result="effect1_dropShadow_548_31"/>
<feBlend mode="normal" in="SourceGraphic" in2="effect1_dropShadow_548_31" result="shape"/>
</filter>
</defs>
</svg>
