<svg width="178" height="219" viewBox="0 0 178 219" fill="none" xmlns="http://www.w3.org/2000/svg">
<path fill-rule="evenodd" clip-rule="evenodd" d="M0.724479 108.647C1.16165 103.883 1.79544 99.1597 2.62246 94.5C3.68812 88.4958 5.07461 82.5975 6.77472 76.8559C11.2474 61.7509 17.8031 48.0261 26.0675 36.4652C34.3319 24.9043 44.1432 15.7337 54.9412 9.477C65.7392 3.22029 77.3123 0 89 0C100.688 0 112.261 3.22029 123.059 9.477C133.857 15.7337 143.668 24.9043 151.932 36.4652C160.197 48.0261 166.753 61.7509 171.225 76.8559C172.925 82.5975 174.312 88.4958 175.378 94.5C176.205 99.1597 176.838 103.883 177.276 108.647C177.748 110.351 178 112.146 178 114V124.5V199C178 210.046 169.046 219 158 219H20C8.9543 219 0 210.046 0 199V124.5V114C0 112.146 0.252313 110.351 0.724479 108.647ZM144.691 94C144.04 91.0739 143.295 88.195 142.46 85.3735C138.832 73.1216 133.653 62.4814 127.527 53.9116C121.4 45.3403 114.646 39.2744 108.018 35.4343C101.47 31.6398 95.0468 30 89 30C82.9532 30 76.5303 31.6398 69.9817 35.4343C63.3544 39.2744 56.6002 45.3403 50.4729 53.9116C44.3466 62.4815 39.168 73.1216 35.5402 85.3735C34.7047 88.195 33.96 91.0739 33.3085 94H144.691Z" fill="black"/>
<path fill-rule="evenodd" clip-rule="evenodd" d="M96.5884 152.634C99.8868 150.269 102.036 146.403 102.036 142.034C102.036 134.836 96.2 129 89.0013 129C81.8025 129 75.9668 134.836 75.9668 142.034C75.9668 146.402 78.1147 150.267 81.4117 152.633L78 184H100L96.5884 152.634Z" fill="#FFC632"/>
</svg>
