<svg width="1743" height="949" viewBox="0 0 1743 949" fill="none" xmlns="http://www.w3.org/2000/svg">
<path fill-rule="evenodd" clip-rule="evenodd" d="M2711.86 204.919C2764.37 145.86 2784.72 91.5659 2772.27 44.6999C2759.83 -2.16611 2714.69 -41.2464 2638.74 -70.4584C2563.13 -99.5368 2459.36 -117.846 2334.42 -124.607C2101.46 -137.213 1796.96 -109.575 1469.09 -38.8965C1606.73 -60.3849 1738.16 -73.1194 1859.38 -77.4403C2256.24 -139.743 2569.31 -108.97 2600.1 6.97478C2608.06 36.949 2596.5 70.1493 2568.38 104.954C2573.56 114.841 2577.59 125.109 2580.42 135.755C2601.58 215.472 2552.61 305.949 2450.14 397.051C2456.84 393.361 2463.46 389.665 2469.99 385.966C2577.03 325.306 2659.58 263.709 2711.86 204.919ZM2412.72 428.461C2208.76 590.689 1841.22 751.204 1403.98 852.788C692.97 1017.98 66.8951 964.783 5.60703 733.969C-55.681 503.155 471.026 182.128 1182.04 16.936C1216.94 8.8283 1251.63 1.24666 1286.06 -5.81373C1321.94 -15.089 1358.36 -24.0296 1395.26 -32.6033C2106.28 -197.795 2727.15 -164.199 2782.01 42.4368C2812 155.369 2666.72 296.615 2412.72 428.461ZM2362.2 453.864C2335.75 472.784 2307.09 491.661 2276.35 510.398C2064.57 639.477 1756.18 760.699 1401.42 843.123C1046.65 925.547 713.47 953.381 461.738 931.992C335.814 921.292 230.857 898.321 153.902 864.11C76.7901 829.828 29.5253 785.1 15.3476 731.706C1.16987 678.312 20.5689 618.096 71.572 554.048C122.471 490.132 203.74 423.895 309.678 359.327C502.39 241.869 775.094 130.917 1089.95 49.7843C538.416 220.536 160.534 464.885 207.205 640.651C262.073 847.286 882.943 880.883 1593.96 715.691C1891.3 646.608 2157.32 553.701 2362.2 453.864ZM2407 420.085C2197.25 528.845 1912.8 631.35 1591.39 706.026C1236.54 788.469 904.553 821.209 654.801 807.694C529.857 800.933 426.088 782.624 350.482 753.546C274.528 724.334 229.39 685.253 216.946 638.387C204.502 591.521 224.846 537.228 277.361 478.168C329.636 419.379 412.186 357.781 519.229 297.122C710.941 188.482 979.573 83.7651 1288.62 3.85591C1460.27 -31.3307 1625.31 -53.5102 1776.67 -63.316C1727.23 -54.2032 1676.76 -43.7121 1625.61 -31.8283C1583.46 -22.0356 1542.19 -11.609 1501.97 -0.64217C1462.48 6.91 1422.42 15.3788 1381.98 24.7756C866.227 144.602 482.177 369.968 524.178 528.144C566.178 686.321 1018.33 717.411 1534.08 597.585C1840.99 526.277 2101.27 417.595 2252.88 307.938C2397.31 244.58 2505.97 176.492 2561.42 113.217C2565.33 121.26 2568.42 129.53 2570.68 138.018C2584.85 191.413 2565.45 251.629 2514.45 315.676C2487.11 350.016 2450.99 385.025 2407 420.085ZM2556.3 103.625C2553.4 107.03 2550.32 110.471 2547.07 113.946C2510.03 153.456 2451.67 195.241 2375.93 236.699C2348.65 251.635 2319.17 266.493 2287.72 281.155C2367.68 215.52 2406.85 150.599 2391.88 94.216C2356.68 -38.3528 2033.38 -81.6529 1626 -21.6568C1626.72 -21.8258 1627.45 -21.9946 1628.18 -22.1632C1707.79 -40.6613 1785.73 -55.7674 1860.64 -67.542C1955.5 -70.9023 2044.03 -69.0861 2124.29 -62.2671C2250.21 -51.5674 2355.17 -28.5972 2432.12 5.61456C2492.04 32.2548 2533.94 65.2032 2556.3 103.625ZM2562.97 95.4504C2588.23 63.0805 2596.95 34.0473 2590.36 9.23784C2582.54 -20.209 2552.68 -45.4752 2499.72 -64.3531C2447.23 -83.0633 2374.75 -94.451 2287.08 -97.9422C2187.95 -101.889 2070.16 -95.7183 1941.25 -79.0902C2257.87 -80.3793 2492.02 -19.9122 2562.97 95.4504ZM1504.54 9.03177C1716.05 -31.385 1911.21 -45.3695 2064.16 -34.8529C2154.97 -28.6087 2230.31 -13.7641 2285.21 8.92328C2340.36 31.7124 2372.85 61.489 2382.14 96.479C2391.43 131.469 2377.62 172.001 2340.27 216.279C2317.4 243.402 2286.2 271.287 2247.62 299.271C2111 359.115 1942.08 414.803 1755.7 458.105C1505.54 516.226 1272.01 540.86 1096.8 533.884C1009.13 530.393 936.649 519.005 884.156 500.295C831.193 481.417 801.337 456.151 793.518 426.704C785.699 397.257 799.447 361.86 836.812 321.996C873.846 282.486 932.204 240.701 1007.94 199.242C1133.79 130.359 1306.2 63.1411 1504.54 9.03177ZM1377.04 36.1947C1005.58 154.312 753.508 314.971 783.777 428.967C820.41 566.927 1256.7 584.3 1758.27 467.77C1924.46 429.157 2076.97 380.688 2205.28 328.114C2193.01 335.997 2180.18 343.869 2166.8 351.716C2012.64 442.18 1788.69 528.168 1531.51 587.92C1274.33 647.671 1033.39 669.693 851.895 657.213C761.083 650.969 685.746 636.124 630.841 613.437C575.689 590.648 543.209 560.871 533.918 525.881C524.627 490.891 538.439 450.359 575.782 406.081C612.958 362 672.114 315.908 749.249 270.644C901.909 181.062 1123.01 95.8679 1377.04 36.1947Z" fill="#4D1DAE"/>
</svg>
