<svg width="363" height="189" viewBox="0 0 363 189" fill="none" xmlns="http://www.w3.org/2000/svg">
<path fill-rule="evenodd" clip-rule="evenodd" d="M112.747 10.5004C94.6027 -10.6001 60 2.23137 60 30.0601V158.996C60 175.565 73.4314 188.996 90 188.996H200.871C226.524 188.996 240.343 158.887 223.617 139.437L112.747 10.5004Z" fill="#3077A9"/>
<path fill-rule="evenodd" clip-rule="evenodd" d="M96.8768 64.6085C77.7966 59.4166 59 73.7819 59 93.556V158.613C59 175.182 72.4314 188.613 89 188.613H328.085C363.095 188.613 369.744 138.858 335.962 129.666L96.8768 64.6085Z" fill="#83FACC"/>
<rect x="145.235" y="46.2236" width="141.037" height="53.2107" rx="26.6054" transform="rotate(15.5341 145.235 46.2236)" fill="#F2AC3D"/>
<rect x="205.971" y="68.1914" width="51.9349" height="21.2167" rx="10.6084" transform="rotate(15.5341 205.971 68.1914)" fill="#F2FB53"/>
<rect y="71.6133" width="59" height="117" rx="29.5" fill="#3B2AC2"/>
<rect x="9" y="127.613" width="170" height="61" rx="30.5" fill="#4FB1B3"/>
<rect y="127.613" width="130" height="61" rx="30.5" fill="#2F76AC"/>
<rect x="273" y="129.613" width="90" height="59" rx="29.5" fill="#4FB1B3"/>
</svg>
