<svg width="27" height="29" viewBox="0 0 27 29" fill="none" xmlns="http://www.w3.org/2000/svg">
<path d="M18.3206 0C18.5272 0 18.7254 0.0885607 18.8715 0.2462L23.2784 5.00124C23.5826 5.3295 23.5826 5.86173 23.2784 6.19L8.95597 21.6439C8.8581 21.7495 8.73591 21.825 8.60199 21.8628L2.63702 23.5439C2.36943 23.6194 2.08485 23.536 1.88928 23.325C1.69372 23.114 1.6165 22.8069 1.6864 22.5182L3.24447 16.082C3.27945 15.9375 3.34948 15.8057 3.44735 15.7001L17.7698 0.2462C17.9159 0.0885607 18.114 0 18.3206 0Z" fill="#030A26"/>
<path d="M1.79477 26.4783C1.1494 26.4783 0.626221 27.0428 0.626221 27.7391C0.626221 28.4355 1.1494 29 1.79477 29H25.1659C25.8112 29 26.3344 28.4355 26.3344 27.7391C26.3344 27.0428 25.8112 26.4783 25.1659 26.4783H1.79477Z" fill="#030A26"/>
</svg>
