<svg width="449" height="446" viewBox="0 0 449 446" fill="none" xmlns="http://www.w3.org/2000/svg">
<g opacity="0.5">
<path fill-rule="evenodd" clip-rule="evenodd" d="M402.93 34.2345C419.02 38.1891 428.857 54.4383 424.903 70.5279C403.088 159.28 357.285 223.145 308.412 264.279C260.965 304.214 207.091 325.398 167.902 321.935C151.398 320.476 139.201 305.914 140.659 289.41C142.118 272.906 156.68 260.709 173.184 262.168C190.302 263.681 228.804 252.859 269.775 218.375C309.32 185.091 347.976 132.126 366.637 56.2068C370.591 40.1171 386.841 30.2798 402.93 34.2345Z" fill="#3B40D0"/>
<path fill-rule="evenodd" clip-rule="evenodd" d="M351.287 196.55C357.784 187.617 355.809 175.109 346.876 168.612C337.943 162.116 325.435 164.091 318.938 173.024C304.352 193.079 301.086 212.92 306.453 230.225C307.817 234.623 309.669 238.625 311.83 242.23C301.896 252.403 293.464 263.398 286.393 274.641C263.412 311.181 254.047 351.26 252.392 378.3C251.21 397.594 265.894 414.192 285.187 415.373C304.481 416.555 321.08 401.871 322.261 382.578C322.653 376.171 323.807 368.198 325.926 359.41C328.111 358.918 330.651 358.361 333.587 357.734C348.624 354.523 373.433 349.603 412.655 342.407C423.519 340.413 430.71 329.99 428.717 319.126C426.724 308.261 416.3 301.07 405.436 303.063C378.995 307.915 358.936 311.762 343.894 314.772C344.466 313.813 345.05 312.858 345.648 311.908C360.947 287.582 384.135 267.234 419.86 260.689C438.874 257.205 451.464 238.968 447.98 219.954C444.497 200.941 426.26 188.351 407.246 191.834C382.862 196.302 361.954 204.882 344.156 216.063C343.672 212.273 344.444 205.961 351.287 196.55Z" fill="#1F2394"/>
<path fill-rule="evenodd" clip-rule="evenodd" d="M212.833 3.14684C227.668 10.5267 233.711 28.5347 226.331 43.369C211.991 72.1926 217.781 82.4273 219.115 84.443C220.938 87.1968 224.575 89.7171 229.043 91.3053C231.486 69.6673 250.842 53.9051 272.603 55.9898C294.594 58.0965 310.713 77.6312 308.606 99.6219C304.194 145.685 294.779 184.755 281.699 217.616L304.832 213.831C321.184 211.155 336.608 222.241 339.283 238.592C341.959 254.943 330.873 270.368 314.522 273.043L244.277 284.538C235.857 295.492 226.871 305.231 217.454 313.836C172.371 355.029 120.319 367.384 82.8996 364.288C60.8834 362.467 44.5123 343.143 46.3337 321.127C48.1551 299.11 67.4793 282.739 89.4955 284.561C105.218 285.861 135.196 280.63 163.49 254.777C184.383 235.687 206.116 203.652 219.219 150.785C202.521 146.963 182.267 137.477 169.084 117.562C151.42 90.8786 153.034 55.9967 172.611 16.6443C179.991 1.81003 197.999 -4.23298 212.833 3.14684Z" fill="#3B40D0"/>
<rect x="108.124" y="263.569" width="155.899" height="131.898" rx="30" fill="#F8831C"/>
<rect y="306.468" width="318.84" height="131.898" rx="30" fill="#F8831C"/>
<rect x="97.0225" y="148.639" width="74.3831" height="239.385" rx="30" fill="#FCB30C"/>
<rect x="50.9766" y="199.111" width="132.237" height="239.385" rx="30" fill="#F8831C"/>
<path d="M143.659 155.008C154.378 154.062 168.248 163.52 165.726 186.848" stroke="#FFD166" stroke-width="20" stroke-linecap="round"/>
<path d="M281.875 214.125C270.906 242.561 257.69 306.346 292.583 334C318.026 354.165 343.112 404.474 292.583 428" stroke="#D2535C" stroke-width="20" stroke-linecap="round"/>
<path d="M276.268 278.75C283.534 284.523 304.739 291.477 331.431 273.109" stroke="#D2535C" stroke-width="20" stroke-linecap="round"/>
<path d="M260.958 234.945C251.385 233.711 233.595 223.596 239.021 193" stroke="#D2535C" stroke-width="20" stroke-linecap="round"/>
<path d="M275.33 316.034C260.737 319.89 228.6 317.23 216.798 275.74" stroke="#D2535C" stroke-width="20" stroke-linecap="round"/>
<path d="M309.644 422.304C325.826 433.409 365.17 438.336 393.098 369.212" stroke="#D2535C" stroke-width="20" stroke-linecap="round"/>
<path d="M305.082 348.268C312.573 350.26 329.672 350.027 338.139 333.159" stroke="#D2535C" stroke-width="20" stroke-linecap="round"/>
<path d="M313.342 388.023C297.242 394.685 261.999 397.12 249.825 353.567" stroke="#D2535C" stroke-width="20" stroke-linecap="round"/>
<ellipse cx="233.811" cy="217.465" rx="7.60879" ry="7.925" fill="#F9A723"/>
<ellipse cx="245.058" cy="364.938" rx="7.60879" ry="7.925" fill="#B7054F"/>
<ellipse cx="400.543" cy="375.275" rx="7.60879" ry="7.925" fill="#F9A723"/>
<ellipse cx="335.041" cy="279.486" rx="7.60879" ry="7.925" fill="#99B9FF"/>
<path d="M375 27.1973L383.342 48.515" stroke="#0CBBFC" stroke-width="13" stroke-linecap="round"/>
<path d="M416.014 51.9033L430.843 34.293" stroke="#0CBBFC" stroke-width="13" stroke-linecap="round"/>
</g>
</svg>
